<svg xmlns="http://www.w3.org/2000/svg" xmlns:xlink="http://www.w3.org/1999/xlink" width="1000" zoomAndPan="magnify" viewBox="0 0 750 374.999991" height="500" preserveAspectRatio="xMidYMid meet" version="1.0"><defs><g/></defs><g fill="#122c59" fill-opacity="1"><g transform="translate(155.061078, 314.057737)"><g><path d="M 81.765625 3.6875 C 120.9375 3.6875 149.5 -18.96875 155.65625 -54.671875 L 110.828125 -54.671875 C 106.15625 -42.859375 95.5625 -35.46875 82.265625 -35.46875 C 65.515625 -35.46875 53.9375 -47.53125 53.9375 -65.265625 C 53.9375 -82.75 65.515625 -94.828125 82.265625 -94.828125 C 94.578125 -94.828125 104.671875 -88.671875 110.09375 -78.078125 L 154.421875 -78.078125 C 148.765625 -112.0625 120.1875 -133.984375 81.765625 -133.984375 C 38.171875 -133.984375 7.640625 -105.421875 7.640625 -65.265625 C 7.640625 -24.625 37.9375 3.6875 81.765625 3.6875 Z M 81.765625 3.6875 "/></g></g></g><g fill="#122c59" fill-opacity="1"><g transform="translate(303.318747, 314.057737)"><g><path d="M 83.5 3.6875 C 128.5625 3.6875 159.109375 -24.140625 159.109375 -65.265625 C 159.109375 -106.15625 128.5625 -133.984375 83.5 -133.984375 C 38.171875 -133.984375 7.640625 -106.15625 7.640625 -65.265625 C 7.640625 -24.140625 38.171875 3.6875 83.5 3.6875 Z M 53.9375 -65.265625 C 53.9375 -82.515625 66.25 -94.828125 83.5 -94.828125 C 100.734375 -94.828125 112.796875 -82.515625 112.796875 -65.265625 C 112.796875 -47.78125 100.734375 -35.46875 83.5 -35.46875 C 66.25 -35.46875 53.9375 -47.78125 53.9375 -65.265625 Z M 53.9375 -65.265625 "/></g></g></g><g fill="#122c59" fill-opacity="1"><g transform="translate(455.516869, 314.057737)"><g><path d="M 16.5 0 L 63.796875 0 L 63.796875 -55.65625 C 63.796875 -77.828125 73.390625 -87.921875 94.578125 -87.921875 L 109.609375 -87.921875 L 109.609375 -130.296875 L 94.328125 -130.296875 C 76.109375 -130.296875 64.53125 -125.359375 56.40625 -114.03125 L 50.484375 -130.296875 L 16.5 -130.296875 Z M 16.5 0 "/></g></g></g><g fill="#122c59" fill-opacity="1"><g transform="translate(558.212563, 314.057737)"><g><path d="M 81.28125 3.6875 C 115.015625 3.6875 140.875 -13.046875 152.453125 -42.109375 L 106.640625 -42.109375 C 101.46875 -35.953125 92.359375 -32.015625 82.265625 -32.015625 C 68.96875 -32.015625 57.875 -39.15625 54.4375 -53.453125 L 154.921875 -53.453125 C 157.390625 -101.96875 128.078125 -133.984375 81.53125 -133.984375 C 37.9375 -133.984375 7.640625 -105.90625 7.640625 -65.265625 C 7.640625 -24.390625 37.6875 3.6875 81.28125 3.6875 Z M 54.671875 -79.0625 C 58.625 -91.625 68.96875 -98.515625 82.015625 -98.515625 C 96.296875 -98.515625 105.90625 -91.125 109.84375 -79.0625 Z M 54.671875 -79.0625 "/></g></g></g><g fill="#e85556" fill-opacity="1"><g transform="translate(273.077276, 166.997681)"><g><path d="M 52.46875 0 L 93.03125 0 L 93.03125 -49.25 L 144.5 -141.265625 L 98.28125 -141.265625 L 72.65625 -90.609375 L 61.75 -112 L 46.828125 -141.265625 L 1.015625 -141.265625 L 52.46875 -49.046875 Z M 52.46875 0 "/></g></g></g><g fill="#e85556" fill-opacity="1"><g transform="translate(406.666681, 166.997681)"><g><path d="M 68.421875 3.03125 C 105.34375 3.03125 130.375 -19.78125 130.375 -53.484375 C 130.375 -86.984375 105.34375 -109.78125 68.421875 -109.78125 C 31.28125 -109.78125 6.25 -86.984375 6.25 -53.484375 C 6.25 -19.78125 31.28125 3.03125 68.421875 3.03125 Z M 44.203125 -53.484375 C 44.203125 -67.609375 54.28125 -77.703125 68.421875 -77.703125 C 82.546875 -77.703125 92.4375 -67.609375 92.4375 -53.484375 C 92.4375 -39.15625 82.546875 -29.0625 68.421875 -29.0625 C 54.28125 -29.0625 44.203125 -39.15625 44.203125 -53.484375 Z M 44.203125 -53.484375 "/></g></g></g><g fill="#e85556" fill-opacity="1"><g transform="translate(531.376842, 166.997681)"><g><path d="M 55.90625 3.03125 C 70.234375 3.03125 82.546875 -2.015625 90.40625 -10.890625 L 94.453125 0 L 122.09375 0 L 122.09375 -106.765625 L 83.34375 -106.765625 L 83.34375 -49.4375 C 83.34375 -36.328125 76.890625 -29.0625 66.390625 -29.0625 C 56.3125 -29.0625 50.25 -35.71875 50.25 -48.234375 L 50.25 -106.765625 L 11.5 -106.765625 L 11.5 -44.203125 C 11.5 -15.34375 28.65625 3.03125 55.90625 3.03125 Z M 55.90625 3.03125 "/></g></g></g><g fill="#e85556" fill-opacity="1"><g transform="translate(655.279832, 166.997681)"><g><path d="M 13.515625 0 L 52.265625 0 L 52.265625 -45.609375 C 52.265625 -63.765625 60.140625 -72.046875 77.5 -72.046875 L 89.8125 -72.046875 L 89.8125 -106.765625 L 77.296875 -106.765625 C 62.359375 -106.765625 52.875 -102.71875 46.21875 -93.4375 L 41.375 -106.765625 L 13.515625 -106.765625 Z M 13.515625 0 "/></g></g></g><path stroke-linecap="butt" transform="matrix(3.053408, 0.247611, -0.247611, 3.053408, 39.054312, -15.720418)" fill="none" stroke-linejoin="miter" d="M 0.227356 47.999672 L 10.218823 48.000512 L 11.995523 43.375016 L 23.147266 43.375156 L 24.912915 47.999956 L 34.949071 47.999731 L 22.259355 15.340753 L 12.929298 15.340008 Z M 13.954663 36.471629 L 17.589222 26.344126 L 21.233885 36.471094 Z M 47.917459 48.694338 C 55.333703 48.695484 60.744436 44.411109 61.917751 37.645647 L 53.420546 37.645166 C 52.532109 39.877964 50.527182 41.278921 48.009461 41.278402 C 44.841975 41.279402 42.643853 38.98859 42.643572 35.640662 C 42.643326 32.324715 44.842319 30.035532 48.008638 30.035906 C 50.344647 30.035809 52.257993 31.197058 53.283744 33.213221 L 61.678656 33.214322 C 60.60823 26.766419 55.196879 22.618922 47.917658 22.619457 C 39.658498 22.620141 33.872092 28.030069 33.872631 35.640631 C 33.871831 43.32934 39.613507 48.694816 47.917459 48.694338 Z M 75.91261 48.694891 C 82.30402 48.69471 87.202814 45.527748 89.389471 40.025943 L 80.720824 40.025293 C 79.740522 41.188363 78.009186 41.940272 76.09527 41.939402 C 73.577652 41.940154 71.48218 40.583868 70.820977 37.872901 L 89.857121 37.873323 C 90.32307 28.679527 84.775773 22.618975 75.958872 22.620113 C 67.699609 22.619526 61.958304 27.938804 61.958535 35.640222 C 61.958904 43.37489 67.654721 48.695472 75.91261 48.694891 Z M 70.866295 33.020648 C 71.618566 30.638978 73.578049 29.340213 76.049706 29.34063 C 78.760578 29.340837 80.572182 30.730378 81.324544 33.019456 Z M 70.866295 33.020648 " stroke="#726a5d" stroke-width="3.499995" stroke-opacity="1" stroke-miterlimit="4"/><g fill="#e4dccf" fill-opacity="1"><g transform="translate(27.168989, 130.843144)"><g><path d="M 0.71875 0.0625 L 31.1875 2.53125 L 37.75 -11.140625 L 71.796875 -8.375 L 76.078125 6.171875 L 106.71875 8.65625 L 76.0625 -94.21875 L 47.5625 -96.53125 Z M 45.453125 -31.75 L 59.078125 -61.75 L 67.671875 -29.953125 Z M 45.453125 -31.75 "/></g></g></g><g fill="#e4dccf" fill-opacity="1"><g transform="translate(126.176938, 138.872026)"><g><path d="M 47.125 5.96875 C 69.78125 7.8125 87.375 -3.953125 92.609375 -24.328125 L 66.671875 -26.421875 C 63.421875 -19.8125 56.921875 -16.03125 49.234375 -16.65625 C 39.546875 -17.4375 33.421875 -24.96875 34.25 -35.21875 C 35.0625 -45.34375 42.34375 -51.765625 52.03125 -50.984375 C 59.15625 -50.40625 64.703125 -46.375 67.34375 -40 L 92.984375 -37.90625 C 91.296875 -57.828125 75.796875 -71.875 53.578125 -73.6875 C 28.359375 -75.71875 9.359375 -60.609375 7.484375 -37.390625 C 5.578125 -13.890625 21.765625 3.921875 47.125 5.96875 Z M 47.125 5.96875 "/></g></g></g><g fill="#e4dccf" fill-opacity="1"><g transform="translate(211.93609, 145.826519)"><g><path d="M 46.84375 5.953125 C 66.359375 7.53125 82.109375 -0.9375 90.15625 -17.203125 L 63.65625 -19.359375 C 60.390625 -16.046875 54.921875 -14.1875 49.078125 -14.65625 C 41.390625 -15.28125 35.328125 -19.9375 33.984375 -28.359375 L 92.109375 -23.640625 C 95.828125 -51.59375 80.359375 -71.515625 53.4375 -73.6875 C 28.21875 -75.734375 9.390625 -60.90625 7.484375 -37.390625 C 5.5625 -13.75 21.625 3.90625 46.84375 5.953125 Z M 35.328125 -43.171875 C 38.203125 -50.25 44.515625 -53.75 52.0625 -53.140625 C 60.328125 -52.46875 65.546875 -47.75 67.25 -40.578125 Z M 35.328125 -43.171875 "/></g></g></g><g fill="#122c59" fill-opacity="1"><g transform="translate(5.261526, 327.585487)"><g><path d="M 83.890625 0.953125 C 128.71875 -0.609375 154.515625 -22.671875 153.28125 -58.234375 C 152.25 -88.125 132.296875 -104.96875 88.15625 -113.234375 C 64.78125 -117.5625 56.09375 -122.9375 55.765625 -132.21875 C 55.453125 -140.984375 62.984375 -146.671875 75.109375 -147.09375 C 89.53125 -147.59375 98.046875 -140.40625 98.515625 -126.734375 L 147.46875 -128.4375 C 146.1875 -165.5625 117 -188.53125 72.6875 -186.984375 C 30.171875 -185.515625 4.625 -163.46875 5.8125 -129.453125 C 6.875 -99.046875 27.375 -80.921875 68.34375 -74.609375 C 90.390625 -71 101.203125 -64.671875 101.5625 -54.359375 C 101.875 -45.328125 94.3125 -39.921875 81.6875 -39.484375 C 66.734375 -38.96875 57.71875 -46.640625 57.234375 -60.5625 L 7 -58.8125 C 8.34375 -19.890625 37 2.59375 83.890625 0.953125 Z M 83.890625 0.953125 "/></g></g></g></svg>