<svg xmlns="http://www.w3.org/2000/svg" xmlns:xlink="http://www.w3.org/1999/xlink" width="3000" zoomAndPan="magnify" viewBox="0 0 2250 2250.000011" height="3000" preserveAspectRatio="xMidYMid meet" version="1.0"><defs><clipPath id="b8f410d4c7"><path d="M 720 2077 L 2059 2077 L 2059 2243.566406 L 720 2243.566406 Z M 720 2077 " clip-rule="nonzero"/></clipPath></defs><path fill="#e2d9cd" d="M 1599.191406 642.058594 C 1423.714844 413.074219 1496.289062 291.328125 1370.820312 180.039062 C 1177.757812 8.789062 769.902344 87.667969 514.152344 261.046875 C 200.921875 473.40625 0.847656 905.480469 119.183594 1332.070312 C 245.214844 1786.363281 685.898438 2066.957031 1111.136719 2048.949219 C 1490.871094 2032.867188 1892.765625 1777.214844 1972.261719 1422.601562 C 1980.890625 1384.167969 2023.515625 1175.917969 1922.011719 979.878906 C 1838.113281 817.855469 1738.273438 823.585938 1599.191406 642.058594 " fill-opacity="1" fill-rule="nonzero"/><path fill="#ffffff" d="M 657.578125 1110.394531 C 666.855469 1097.363281 771.347656 945.089844 705.722656 771.4375 C 659.648438 649.523438 542.457031 550.753906 406.398438 545.433594 C 383.445312 544.546875 238.679688 538.894531 160.992188 654.535156 C 108.667969 732.402344 102.945312 841.207031 153.796875 920.375 C 214.234375 1014.445312 329.65625 1027.851562 346.78125 1029.578125 C 466.667969 1041.632812 532.742188 964.742188 598.121094 1001.859375 C 638.125 1024.582031 651.941406 1075.273438 657.578125 1110.394531 " fill-opacity="1" fill-rule="nonzero"/><path fill="#000000" d="M 558.945312 987.785156 C 572.910156 987.785156 586.507812 990.78125 600.042969 998.46875 C 629.976562 1015.464844 650.039062 1049.691406 659.75 1100.234375 C 683.292969 1063.953125 760.472656 927.335938 702.078125 772.820312 C 653.453125 644.144531 534.570312 554.339844 406.25 549.332031 C 356.480469 547.375 233.246094 553.964844 164.222656 656.699219 C 111.496094 735.175781 108.558594 842.734375 157.082031 918.257812 C 214.796875 1008.113281 325.554688 1023.527344 347.171875 1025.691406 C 404.378906 1031.460938 448.71875 1016.800781 487.84375 1003.890625 C 513.273438 995.480469 536.570312 987.785156 558.945312 987.785156 Z M 657.578125 1114.285156 C 657.28125 1114.285156 656.988281 1114.253906 656.691406 1114.183594 C 655.152344 1113.832031 653.984375 1112.574219 653.730469 1111 C 645.175781 1057.660156 625.820312 1022.070312 596.199219 1005.242188 C 563.972656 986.945312 531.453125 997.671875 490.28125 1011.28125 C 450.421875 1024.441406 405.25 1039.363281 346.390625 1033.453125 C 315.148438 1030.296875 208.683594 1013.007812 150.523438 922.46875 C 100.378906 844.40625 103.351562 733.328125 157.757812 652.347656 C 228.964844 546.355469 355.464844 539.550781 406.546875 541.542969 C 472.496094 544.121094 536.691406 568.363281 592.199219 611.644531 C 644.585938 652.488281 686.195312 708.753906 709.367188 770.0625 C 775.171875 944.175781 672.660156 1095.921875 660.753906 1112.644531 C 660.011719 1113.6875 658.824219 1114.285156 657.578125 1114.285156 " fill-opacity="1" fill-rule="nonzero"/><path fill="#122c59" d="M 397.308594 751.222656 C 428.714844 698.261719 472.457031 674.296875 497.773438 685.296875 C 526.757812 697.886719 525.847656 753.839844 525.585938 762.25 C 523.238281 838.023438 454.84375 886.769531 440.691406 896.433594 C 430.402344 894.324219 309.136719 867.820312 288.519531 783.902344 C 282.320312 758.695312 282.023438 715.335938 305.011719 703.007812 C 326.648438 691.402344 366.835938 708.441406 397.308594 751.222656 " fill-opacity="1" fill-rule="nonzero"/><path fill="#000000" d="M 708.207031 370.128906 L 849.824219 487.480469 C 860.195312 496.074219 874.160156 496.359375 881.007812 488.089844 L 892.285156 474.476562 C 899.132812 466.21875 896.273438 452.550781 885.898438 443.957031 L 744.285156 326.585938 L 708.207031 370.128906 " fill-opacity="1" fill-rule="nonzero"/><path fill="#000000" d="M 1173.683594 226.210938 C 1179.386719 258.734375 1167.90625 287.925781 1148.027344 291.40625 C 1128.15625 294.902344 1107.414062 271.375 1101.699219 238.851562 C 1095.996094 206.34375 1107.472656 177.148438 1127.355469 173.667969 C 1147.222656 170.171875 1167.96875 193.699219 1173.683594 226.210938 " fill-opacity="1" fill-rule="nonzero"/><path fill="#000000" d="M 669.789062 294.144531 L 679.84375 351.414062 C 681.394531 360.230469 693.910156 365.394531 707.800781 362.960938 L 692.132812 273.761719 C 678.242188 276.203125 668.242188 285.324219 669.789062 294.144531 " fill-opacity="1" fill-rule="nonzero"/><path fill="#ffffff" d="M 1093.832031 100.546875 L 1071.566406 104.453125 L 689.679688 275.859375 L 705.34375 365.054688 L 1120.019531 380.324219 L 1142.285156 376.417969 L 1093.832031 100.546875 " fill-opacity="1" fill-rule="nonzero"/><path fill="#000000" d="M 708.632812 361.28125 L 1119.746094 376.4375 L 1137.773438 373.273438 L 1090.664062 105.054688 L 1072.71875 108.21875 L 694.039062 278.167969 Z M 1120.011719 384.234375 C 1119.96875 384.234375 1119.921875 384.234375 1119.875 384.234375 L 705.199219 368.953125 C 703.363281 368.890625 701.824219 367.550781 701.503906 365.742188 L 685.839844 276.53125 C 685.53125 274.769531 686.457031 273.039062 688.082031 272.304688 L 1069.96875 100.90625 C 1070.261719 100.78125 1070.570312 100.6875 1070.886719 100.628906 L 1093.160156 96.714844 C 1094.183594 96.542969 1095.226562 96.777344 1096.074219 97.355469 C 1096.914062 97.957031 1097.488281 98.867188 1097.664062 99.878906 L 1146.121094 375.75 C 1146.296875 376.777344 1146.0625 377.824219 1145.472656 378.664062 C 1144.878906 379.507812 1143.972656 380.085938 1142.957031 380.273438 L 1120.6875 384.171875 C 1120.464844 384.21875 1120.238281 384.234375 1120.011719 384.234375 " fill-opacity="1" fill-rule="nonzero"/><path fill="#122c59" d="M 1149 388.179688 L 1130.402344 391.449219 C 1122.375 392.859375 1114.957031 386.894531 1114.570312 378.75 C 1110.15625 287.613281 1094.382812 197.265625 1066.945312 107.785156 C 1064.5625 100.007812 1069.507812 91.894531 1077.511719 90.484375 L 1096.097656 87.226562 C 1102.742188 86.054688 1109.246094 89.984375 1111.316406 96.40625 C 1140.675781 188.015625 1156.992188 280.691406 1160.179688 374.417969 C 1160.402344 381.148438 1155.636719 387.019531 1149 388.179688 " fill-opacity="1" fill-rule="nonzero"/><path fill="#000000" d="M 1731.023438 613.710938 C 1692.078125 692.308594 1642.578125 747 1607.339844 780.414062 C 1536.238281 688.539062 1496.492188 604.113281 1473.789062 545.460938 C 1442.914062 465.667969 1426.488281 419.640625 1442.851562 363.957031 C 1461.59375 300.128906 1521.207031 243.496094 1594.804688 230.140625 C 1652.253906 219.726562 1724.585938 233.730469 1765.773438 282.222656 C 1847.542969 378.484375 1759.867188 555.476562 1731.023438 613.710938 " fill-opacity="1" fill-rule="nonzero"/><path fill="#ffffff" d="M 1610.296875 743.382812 C 1610.207031 743.382812 1610.121094 743.382812 1610.03125 743.371094 C 1608.875 743.296875 1607.820312 742.710938 1607.144531 741.773438 C 1560.535156 677.433594 1522.890625 608.597656 1495.242188 537.15625 C 1494.46875 535.144531 1495.464844 532.890625 1497.472656 532.113281 C 1499.476562 531.355469 1501.738281 532.332031 1502.511719 534.34375 C 1529.371094 603.75 1565.75 670.695312 1610.691406 733.390625 C 1648.316406 693.214844 1679.511719 648.378906 1703.441406 600.042969 C 1730.035156 546.355469 1810.984375 382.96875 1742.328125 302.144531 C 1718.679688 274.292969 1677.253906 257.675781 1631.542969 257.675781 C 1620.855469 257.675781 1610.351562 258.597656 1600.300781 260.417969 C 1598.175781 260.800781 1596.15625 259.40625 1595.757812 257.28125 C 1595.375 255.152344 1596.78125 253.132812 1598.894531 252.75 C 1609.414062 250.847656 1620.40625 249.882812 1631.542969 249.882812 C 1679.511719 249.882812 1723.148438 267.535156 1748.257812 297.101562 C 1820.230469 381.824219 1737.578125 548.671875 1710.429688 603.496094 C 1685.460938 653.90625 1652.710938 700.570312 1613.121094 742.167969 C 1612.375 742.945312 1611.367188 743.382812 1610.296875 743.382812 " fill-opacity="1" fill-rule="nonzero"/><path fill="#ffffff" d="M 1468.648438 375.429688 C 1468.277344 375.429688 1467.910156 375.375 1467.539062 375.273438 C 1465.472656 374.664062 1464.296875 372.503906 1464.90625 370.4375 C 1468.703125 357.523438 1474.441406 344.863281 1481.957031 332.816406 C 1483.101562 330.992188 1485.507812 330.4375 1487.320312 331.574219 C 1489.148438 332.714844 1489.714844 335.109375 1488.566406 336.9375 C 1481.417969 348.390625 1475.980469 360.398438 1472.367188 372.628906 C 1471.875 374.328125 1470.316406 375.429688 1468.648438 375.429688 " fill-opacity="1" fill-rule="nonzero"/><path fill="#ffffff" d="M 1723.15625 378.53125 C 1723.15625 421.878906 1683.394531 457.023438 1634.332031 457.023438 C 1585.289062 457.023438 1545.527344 421.878906 1545.527344 378.53125 C 1545.527344 335.199219 1585.289062 300.050781 1634.332031 300.050781 C 1683.394531 300.050781 1723.15625 335.199219 1723.15625 378.53125 " fill-opacity="1" fill-rule="nonzero"/><path fill="#122c59" d="M 202.128906 2039.054688 C 202.128906 2039.054688 193.574219 1528.242188 536.84375 1335.359375 C 663.851562 1263.992188 815.84375 1254.328125 963.898438 1260.660156 C 1068.070312 1265.101562 1169.195312 1261.976562 1263.035156 1318.136719 C 1396.371094 1397.917969 1510.65625 1535.386719 1581.355469 1746.238281 L 1645.527344 2129.316406 L 202.128906 2039.054688 " fill-opacity="1" fill-rule="nonzero"/><path fill="#122c59" d="M 778.386719 2106.691406 C 369.265625 2100.863281 246.402344 2147.496094 211.175781 2081.699219 C 165.847656 1997.027344 296.832031 1784.429688 464.707031 1743.210938 C 506.53125 1732.9375 561.589844 1730.625 1007.949219 1967.1875 C 1164.503906 2050.152344 1208.445312 2077.316406 1203.277344 2097.828125 C 1194.292969 2133.457031 1046.855469 2110.519531 778.386719 2106.691406 " fill-opacity="1" fill-rule="nonzero"/><path fill="#ffffff" d="M 682.160156 1780.578125 C 681.84375 1780.578125 681.523438 1780.539062 681.203125 1780.457031 C 679.121094 1779.925781 677.851562 1777.816406 678.378906 1775.734375 C 713.074219 1637.636719 812.757812 1524.144531 813.757812 1523.007812 C 815.1875 1521.40625 817.644531 1521.261719 819.253906 1522.675781 C 820.867188 1524.105469 821.011719 1526.574219 819.585938 1528.179688 C 818.597656 1529.304688 720.152344 1641.429688 685.929688 1777.625 C 685.488281 1779.398438 683.902344 1780.578125 682.160156 1780.578125 " fill-opacity="1" fill-rule="nonzero"/><path fill="#ffffff" d="M 1007.949219 1967.1875 C 915.625 1918.25 840.085938 1879.574219 777.902344 1849.039062 C 717.777344 1889.113281 645.269531 1966.835938 653.503906 2106.457031 C 691.847656 2106.046875 733.382812 2106.054688 778.386719 2106.691406 C 1046.855469 2110.519531 1194.292969 2133.457031 1203.277344 2097.828125 C 1208.445312 2077.316406 1164.503906 2050.152344 1007.949219 1967.1875 " fill-opacity="1" fill-rule="nonzero"/><path fill="#000000" d="M 706.042969 2102.285156 C 730.105469 2102.285156 754.316406 2102.453125 778.445312 2102.796875 C 863.269531 2104.011719 936.9375 2107.167969 996.121094 2109.695312 C 1115.355469 2114.804688 1194.125 2118.171875 1199.5 2096.867188 C 1203.984375 2079.078125 1152.734375 2048.324219 1006.125 1970.621094 C 918.707031 1924.296875 842.042969 1884.910156 778.207031 1853.527344 C 718.757812 1893.753906 650.65625 1969.289062 657.195312 2102.527344 C 673.363281 2102.359375 689.667969 2102.285156 706.042969 2102.285156 Z M 1118.472656 2121.367188 C 1086.476562 2121.367188 1045.699219 2119.621094 995.792969 2117.484375 C 936.65625 2114.945312 863.050781 2111.792969 778.332031 2110.589844 C 736.582031 2109.988281 694.597656 2109.914062 653.546875 2110.351562 C 651.375 2110.398438 649.738281 2108.757812 649.617188 2106.683594 C 641.320312 1966.058594 713.625 1887.199219 775.742188 1845.792969 C 776.894531 1845.027344 778.371094 1844.9375 779.617188 1845.550781 C 843.929688 1877.117188 921.363281 1916.894531 1009.773438 1963.742188 C 1170.347656 2048.839844 1212.980469 2075.230469 1207.054688 2098.78125 C 1202.671875 2116.160156 1173.675781 2121.367188 1118.472656 2121.367188 " fill-opacity="1" fill-rule="nonzero"/><path fill="#ffffff" d="M 764.433594 1846.351562 C 763.761719 1846.351562 763.078125 1846.171875 762.460938 1845.808594 C 761.820312 1845.429688 697.773438 1807.753906 626.121094 1778.390625 C 624.128906 1777.578125 623.179688 1775.300781 623.996094 1773.304688 C 624.808594 1771.320312 627.085938 1770.375 629.070312 1771.179688 C 701.269531 1800.777344 765.777344 1838.722656 766.417969 1839.101562 C 768.273438 1840.183594 768.886719 1842.582031 767.792969 1844.4375 C 767.066406 1845.664062 765.765625 1846.351562 764.433594 1846.351562 " fill-opacity="1" fill-rule="nonzero"/><path fill="#ffffff" d="M 668.128906 1774.828125 C 666.695312 1774.828125 665.316406 1774.039062 664.632812 1772.652344 C 637.367188 1717.449219 658.78125 1647.6875 659.707031 1644.742188 C 660.355469 1642.691406 662.542969 1641.558594 664.585938 1642.195312 C 666.640625 1642.84375 667.785156 1645.03125 667.136719 1647.082031 C 666.921875 1647.769531 645.757812 1716.835938 671.621094 1769.207031 C 672.570312 1771.144531 671.78125 1773.46875 669.851562 1774.425781 C 669.296875 1774.695312 668.710938 1774.828125 668.128906 1774.828125 " fill-opacity="1" fill-rule="nonzero"/><path fill="#ffffff" d="M 928.816406 973.035156 L 850.785156 1226.292969 C 850.785156 1226.292969 660.863281 1256.917969 572.25 1323.363281 C 572.25 1323.363281 720.828125 1265.277344 811.050781 1327.554688 C 901.269531 1389.824219 1127.246094 1413.308594 1257.125 1332.5625 C 1257.125 1332.5625 1077.941406 1255.382812 1076.570312 1250.457031 C 1074.292969 1242.265625 1083.738281 1219.101562 1083.738281 1219.101562 C 1083.738281 1219.101562 1104.777344 1232.050781 1132.980469 1239.527344 C 1154.089844 1245.113281 1171.210938 1229.953125 1180.527344 1210.132812 C 1201.777344 1164.972656 1215.824219 1105.207031 1215.824219 1105.207031 L 1249.070312 1096.941406 C 1244.976562 1047.636719 1233.382812 1023.636719 1242.425781 978.417969 C 1249.863281 941.265625 1277.953125 934.476562 1277.953125 846.386719 L 1036.535156 758.027344 L 928.871094 869.785156 C 928.871094 869.785156 918.03125 849.503906 890.976562 858.167969 C 863.90625 866.847656 859.535156 985.300781 889 990.777344 C 909.261719 994.546875 928.816406 973.035156 928.816406 973.035156 " fill-opacity="1" fill-rule="nonzero"/><path fill="#000000" d="M 703.769531 1294.640625 C 741.339844 1294.640625 780.777344 1301.925781 813.261719 1324.34375 C 857.738281 1355.039062 936.710938 1376.292969 1019.378906 1379.796875 C 1109.242188 1383.601562 1190.242188 1367.058594 1248.625 1333.128906 C 1234.269531 1326.917969 1199.910156 1312.03125 1165.789062 1296.917969 C 1074.171875 1256.351562 1073.570312 1254.214844 1072.816406 1251.507812 C 1070.300781 1242.480469 1078.46875 1221.699219 1080.136719 1217.625 C 1080.574219 1216.566406 1081.445312 1215.75 1082.53125 1215.394531 C 1083.617188 1215.039062 1084.8125 1215.183594 1085.78125 1215.785156 C 1085.992188 1215.902344 1106.714844 1228.546875 1133.984375 1235.761719 C 1158.882812 1242.375 1173.207031 1216.542969 1177.007812 1208.476562 C 1197.84375 1164.203125 1211.894531 1104.914062 1212.039062 1104.320312 C 1212.367188 1102.890625 1213.476562 1101.78125 1214.894531 1101.429688 L 1244.90625 1093.96875 C 1243.582031 1079.613281 1241.683594 1067.625 1239.839844 1056.007812 C 1235.828125 1030.730469 1232.355469 1008.910156 1238.613281 977.652344 C 1241.257812 964.449219 1246.390625 954.910156 1251.824219 944.816406 C 1262.082031 925.78125 1273.675781 904.25 1274.046875 849.101562 L 1037.585938 762.550781 L 931.683594 872.492188 C 930.820312 873.386719 929.582031 873.8125 928.339844 873.636719 C 927.097656 873.46875 926.03125 872.714844 925.4375 871.617188 C 925.0625 870.933594 915.648438 854.355469 892.15625 861.890625 C 879.925781 865.796875 870.609375 905.171875 872.980469 942.878906 C 874.574219 968.0625 881.136719 985.359375 889.710938 986.953125 C 907.5625 990.269531 925.757812 970.613281 925.933594 970.410156 C 927.160156 969.078125 929.164062 968.761719 930.753906 969.65625 C 932.332031 970.570312 933.078125 972.445312 932.53125 974.1875 L 854.507812 1227.433594 C 854.070312 1228.855469 852.867188 1229.90625 851.40625 1230.140625 C 849.679688 1230.414062 692.261719 1256.304688 598.945312 1310.507812 C 623.953125 1303.328125 662.742188 1294.640625 703.769531 1294.640625 Z M 1045.199219 1388.203125 C 949.71875 1388.203125 857.5625 1364.390625 808.835938 1330.753906 C 721.332031 1270.351562 575.136719 1326.425781 573.667969 1327 C 571.851562 1327.710938 569.796875 1326.964844 568.851562 1325.265625 C 567.898438 1323.566406 568.355469 1321.429688 569.914062 1320.257812 C 652.867188 1258.039062 825.398438 1226.707031 847.769531 1222.855469 L 921.082031 984.910156 C 912.886719 990.816406 900.867188 996.945312 888.28125 994.613281 C 870.171875 991.238281 866.113281 957.660156 865.207031 943.378906 C 863.1875 911.347656 869.601562 860.929688 889.78125 854.464844 C 911.386719 847.542969 923.9375 857.601562 929.277344 863.765625 L 1033.734375 755.324219 C 1034.800781 754.21875 1036.429688 753.839844 1037.882812 754.371094 L 1279.285156 842.726562 C 1280.820312 843.28125 1281.847656 844.746094 1281.847656 846.386719 C 1281.847656 905.515625 1269.003906 929.351562 1258.683594 948.511719 C 1253.308594 958.5 1248.660156 967.117188 1246.25 979.183594 C 1240.261719 1009.070312 1243.476562 1029.246094 1247.535156 1054.796875 C 1249.449219 1066.835938 1251.613281 1080.496094 1252.953125 1096.609375 C 1253.113281 1098.523438 1251.871094 1100.257812 1250.015625 1100.71875 L 1219.0625 1108.417969 C 1216.21875 1119.917969 1202.875 1171.808594 1184.054688 1211.792969 C 1172.367188 1236.636719 1152.417969 1248.699219 1131.992188 1243.296875 C 1110.476562 1237.605469 1093.242188 1228.878906 1085.734375 1224.734375 C 1082.675781 1233.09375 1079.640625 1243.730469 1080.148438 1248.464844 C 1090.988281 1255.785156 1191.824219 1300.1875 1258.671875 1328.984375 C 1260.007812 1329.550781 1260.902344 1330.824219 1261.007812 1332.265625 C 1261.128906 1333.71875 1260.417969 1335.097656 1259.191406 1335.871094 C 1199.273438 1373.113281 1121.183594 1388.203125 1045.199219 1388.203125 " fill-opacity="1" fill-rule="nonzero"/><path fill="#000000" d="M 928.820312 874.242188 C 928.820312 874.242188 965.847656 872.445312 965.1875 904.929688 C 964.511719 937.40625 944.339844 993.207031 977.285156 1013.371094 C 1010.207031 1033.542969 1030.378906 944.816406 1030.378906 918.597656 C 1030.378906 892.375 1056.5625 821.179688 1107.328125 827.542969 C 1163.359375 834.554688 1192.097656 874.335938 1277.953125 866.070312 C 1290.898438 864.8125 1338.125 860.261719 1351.707031 830.019531 C 1361.277344 808.742188 1349.742188 784.582031 1344.761719 774.519531 C 1336.777344 758.320312 1311.179688 716.839844 1185.1875 678.761719 C 1095.628906 651.710938 1050.859375 638.171875 1014.253906 655.070312 C 952.5625 683.550781 920.746094 772.605469 928.820312 874.242188 " fill-opacity="1" fill-rule="nonzero"/><path fill="#ffffff" d="M 1083.738281 1219.101562 L 1019.664062 1180.246094 C 1006.714844 1172.382812 997.21875 1159.894531 993.109375 1145.304688 L 981.351562 1103.484375 L 1083.738281 1219.101562 " fill-opacity="1" fill-rule="nonzero"/><path fill="#000000" d="M 1083.738281 1222.984375 C 1083.054688 1222.984375 1082.351562 1222.808594 1081.714844 1222.429688 L 1017.644531 1183.578125 C 1003.792969 1175.167969 993.75 1161.960938 989.355469 1146.363281 L 977.597656 1104.542969 C 977.019531 1102.46875 978.222656 1100.320312 980.289062 1099.742188 C 982.367188 1099.160156 984.515625 1100.363281 985.09375 1102.429688 L 996.867188 1144.25 C 1000.714844 1157.933594 1009.523438 1169.539062 1021.691406 1176.917969 L 1085.757812 1215.773438 C 1087.597656 1216.882812 1088.1875 1219.28125 1087.074219 1221.121094 C 1086.332031 1222.324219 1085.058594 1222.984375 1083.738281 1222.984375 " fill-opacity="1" fill-rule="nonzero"/><path fill="#ffffff" d="M 1878.9375 1639.363281 L 1347.238281 1639.363281 C 1329.65625 1639.363281 1318.878906 1620.101562 1328.054688 1605.109375 L 1657.511719 1066.3125 C 1664.535156 1054.824219 1677.042969 1047.800781 1690.527344 1047.800781 L 2217.808594 1047.800781 C 2237.324219 1047.800781 2249.296875 1069.171875 2239.113281 1085.820312 L 1911.953125 1620.851562 C 1904.929688 1632.347656 1892.417969 1639.363281 1878.9375 1639.363281 " fill-opacity="1" fill-rule="nonzero"/><path fill="#000000" d="M 1690.53125 1051.695312 C 1678.488281 1051.695312 1667.113281 1058.074219 1660.832031 1068.34375 L 1331.375 1607.140625 C 1327.808594 1612.960938 1327.667969 1619.996094 1331.015625 1625.945312 C 1334.359375 1631.910156 1340.421875 1635.460938 1347.238281 1635.460938 L 1878.953125 1635.460938 C 1890.988281 1635.460938 1902.359375 1629.085938 1908.640625 1618.816406 L 2235.800781 1083.777344 C 2239.84375 1077.171875 2239.980469 1069.214844 2236.210938 1062.46875 C 2232.425781 1055.71875 2225.546875 1051.695312 2217.820312 1051.695312 Z M 1878.953125 1643.253906 L 1347.238281 1643.253906 C 1337.5625 1643.253906 1328.957031 1638.199219 1324.226562 1629.761719 C 1319.484375 1621.320312 1319.675781 1611.34375 1324.714844 1603.074219 L 1654.199219 1064.277344 C 1661.882812 1051.710938 1675.796875 1043.90625 1690.53125 1043.90625 L 2217.820312 1043.90625 C 2228.40625 1043.90625 2237.832031 1049.417969 2243.015625 1058.667969 C 2248.179688 1067.894531 2247.976562 1078.804688 2242.449219 1087.847656 L 1915.289062 1622.886719 C 1907.605469 1635.453125 1893.691406 1643.253906 1878.953125 1643.253906 " fill-opacity="1" fill-rule="nonzero"/><path fill="#e85556" d="M 2004.050781 1295.792969 L 1630.515625 1295.792969 L 1652.3125 1260.070312 L 2025.851562 1260.070312 L 2004.050781 1295.792969 " fill-opacity="1" fill-rule="nonzero"/><path fill="#e85556" d="M 2046.703125 1225.882812 L 1673.160156 1225.882812 L 1739.777344 1116.667969 L 2113.316406 1116.667969 L 2046.703125 1225.882812 " fill-opacity="1" fill-rule="nonzero"/><path fill="#000000" d="M 1744.679688 2080.941406 L 1236.472656 2080.941406 L 1613.21875 1501.5 C 1625 1483.402344 1645.503906 1472.421875 1667.5625 1472.421875 L 2080 1472.421875 C 2106.175781 1472.421875 2122.109375 1500.460938 2108.117188 1521.976562 L 1744.679688 2080.941406 " fill-opacity="1" fill-rule="nonzero"/><path fill="#e2d9cd" d="M 1853.101562 1675.605469 C 1836.585938 1701.003906 1801.066406 1721.589844 1773.773438 1721.589844 C 1746.484375 1721.589844 1737.738281 1701.003906 1754.246094 1675.605469 C 1770.761719 1650.199219 1806.273438 1629.621094 1833.574219 1629.621094 C 1860.867188 1629.621094 1869.605469 1650.199219 1853.101562 1675.605469 " fill-opacity="1" fill-rule="nonzero"/><path fill="#000000" d="M 1730.175781 2129.3125 L 811.714844 2129.3125 C 802.683594 2129.3125 795.367188 2121.992188 795.367188 2112.957031 L 795.367188 2076.789062 L 1746.519531 2076.789062 L 1746.519531 2112.957031 C 1746.519531 2121.992188 1739.191406 2129.3125 1730.175781 2129.3125 " fill-opacity="1" fill-rule="nonzero"/><path fill="#ffffff" d="M 1718.242188 2085.359375 L 1281.796875 2085.359375 C 1279.652344 2085.359375 1277.90625 2083.613281 1277.90625 2081.464844 C 1277.90625 2079.316406 1279.652344 2077.566406 1281.796875 2077.566406 L 1718.242188 2077.566406 C 1720.402344 2077.566406 1722.136719 2079.316406 1722.136719 2081.464844 C 1722.136719 2083.613281 1720.402344 2085.359375 1718.242188 2085.359375 " fill-opacity="1" fill-rule="nonzero"/><g clip-path="url(#b8f410d4c7)"><path fill="#000000" d="M 758.035156 2243.777344 C 757.070312 2243.777344 756.105469 2243.421875 755.347656 2242.714844 C 727.351562 2216.125 716.472656 2195.441406 722.09375 2179.441406 C 735.777344 2140.519531 842.902344 2153.636719 1020.375 2175.347656 C 1109.785156 2186.292969 1221.054688 2199.902344 1342.660156 2209.109375 C 1682.917969 2234.910156 2040.585938 2227.082031 2050.105469 2169.347656 C 2052.21875 2156.480469 2034.6875 2142.40625 2019.246094 2130.007812 C 1928.425781 2057.09375 1794.277344 2091.734375 1740.808594 2109.996094 C 1738.773438 2110.707031 1736.558594 2109.621094 1735.859375 2107.578125 C 1735.160156 2105.546875 1736.25 2103.324219 1738.289062 2102.632812 C 1779.136719 2088.675781 1820.839844 2080.1875 1858.90625 2078.097656 C 1926.054688 2074.390625 1981.632812 2089.820312 2024.121094 2123.929688 C 2042.070312 2138.347656 2060.644531 2153.257812 2057.792969 2170.613281 C 2052.347656 2203.644531 1965.851562 2223.316406 1800.738281 2229.074219 C 1673.015625 2233.527344 1501.558594 2228.96875 1342.0625 2216.882812 C 1220.292969 2207.660156 1108.921875 2194.027344 1019.429688 2183.078125 C 857.8125 2163.300781 741.046875 2149.019531 729.445312 2182.03125 C 725.066406 2194.460938 735.882812 2213.492188 760.710938 2237.058594 C 762.273438 2238.542969 762.339844 2241.003906 760.855469 2242.5625 C 760.089844 2243.371094 759.0625 2243.777344 758.035156 2243.777344 " fill-opacity="1" fill-rule="nonzero"/></g><path fill="#000000" d="M 2025.84375 991.769531 C 2025.167969 991.769531 2024.496094 991.59375 2023.867188 991.234375 C 2022.015625 990.128906 2021.402344 987.746094 2022.496094 985.894531 L 2117.304688 825.773438 C 2118.378906 823.921875 2120.785156 823.308594 2122.628906 824.398438 C 2124.480469 825.492188 2125.09375 827.882812 2124 829.734375 L 2029.210938 989.855469 C 2028.476562 991.082031 2027.175781 991.769531 2025.84375 991.769531 " fill-opacity="1" fill-rule="nonzero"/><path fill="#000000" d="M 2063.277344 991.769531 C 2062.394531 991.769531 2061.519531 991.484375 2060.796875 990.878906 C 2059.132812 989.5 2058.90625 987.039062 2060.292969 985.386719 L 2146.324219 881.929688 C 2147.703125 880.28125 2150.152344 880.054688 2151.800781 881.429688 C 2153.460938 882.808594 2153.691406 885.257812 2152.3125 886.910156 L 2066.269531 990.375 C 2065.515625 991.285156 2064.394531 991.769531 2063.277344 991.769531 " fill-opacity="1" fill-rule="nonzero"/><path fill="#000000" d="M 1637.1875 1044.105469 C 1635.953125 1044.105469 1634.757812 1043.542969 1634 1042.464844 L 1526.632812 890.484375 C 1525.386719 888.722656 1525.804688 886.292969 1527.566406 885.054688 C 1529.316406 883.808594 1531.75 884.230469 1532.996094 885.992188 L 1640.363281 1037.964844 C 1641.597656 1039.734375 1641.191406 1042.164062 1639.429688 1043.398438 C 1638.746094 1043.886719 1637.96875 1044.105469 1637.1875 1044.105469 " fill-opacity="1" fill-rule="nonzero"/><path fill="#000000" d="M 1666.8125 1023.386719 C 1665.375 1023.386719 1663.976562 1022.585938 1663.308594 1021.210938 L 1604.078125 900.398438 C 1603.113281 898.460938 1603.917969 896.128906 1605.855469 895.1875 C 1607.785156 894.242188 1610.125 895.03125 1611.0625 896.96875 L 1670.304688 1017.78125 C 1671.253906 1019.710938 1670.453125 1022.050781 1668.53125 1022.988281 C 1667.96875 1023.265625 1667.386719 1023.386719 1666.8125 1023.386719 " fill-opacity="1" fill-rule="nonzero"/><path fill="#000000" d="M 1954.230469 812.878906 C 1952.636719 812.878906 1951.164062 811.90625 1950.578125 810.328125 C 1916.378906 718.234375 1865.964844 632.699219 1800.738281 556.125 C 1799.34375 554.480469 1799.558594 552.027344 1801.183594 550.636719 C 1802.816406 549.230469 1805.28125 549.421875 1806.6875 551.070312 C 1872.5 628.339844 1923.359375 714.671875 1957.890625 807.613281 C 1958.628906 809.632812 1957.601562 811.878906 1955.582031 812.632812 C 1955.132812 812.796875 1954.6875 812.878906 1954.230469 812.878906 " fill-opacity="1" fill-rule="nonzero"/><path fill="#000000" d="M 1428.640625 294.457031 C 1428.171875 294.457031 1427.699219 294.386719 1427.246094 294.210938 C 1418.410156 290.835938 1409.5 287.589844 1400.734375 284.546875 C 1398.703125 283.835938 1397.628906 281.621094 1398.339844 279.578125 C 1399.050781 277.550781 1401.269531 276.472656 1403.296875 277.183594 C 1412.121094 280.257812 1421.101562 283.53125 1430.027344 286.925781 C 1432.027344 287.691406 1433.03125 289.9375 1432.273438 291.953125 C 1431.683594 293.515625 1430.203125 294.457031 1428.640625 294.457031 " fill-opacity="1" fill-rule="nonzero"/><path fill="#000000" d="M 1371.222656 274.617188 C 1370.835938 274.617188 1370.4375 274.554688 1370.070312 274.4375 C 1316.019531 257.65625 1259.933594 245.542969 1203.371094 238.453125 C 1201.234375 238.1875 1199.726562 236.242188 1199.992188 234.097656 C 1200.269531 231.96875 1202.234375 230.460938 1204.332031 230.714844 C 1261.367188 237.878906 1317.894531 250.082031 1372.375 266.992188 C 1374.425781 267.644531 1375.578125 269.816406 1374.941406 271.867188 C 1374.425781 273.535156 1372.871094 274.617188 1371.222656 274.617188 " fill-opacity="1" fill-rule="nonzero"/><path fill="#000000" d="M 432.972656 477.621094 C 431.914062 477.621094 430.863281 477.195312 430.09375 476.347656 C 428.640625 474.761719 428.75 472.296875 430.335938 470.855469 C 490.113281 416.132812 557.378906 369.210938 630.269531 331.410156 C 632.191406 330.417969 634.53125 331.171875 635.523438 333.082031 C 636.515625 334.988281 635.769531 337.34375 633.859375 338.320312 C 561.578125 375.824219 494.871094 422.347656 435.601562 476.585938 C 434.851562 477.28125 433.90625 477.621094 432.972656 477.621094 " fill-opacity="1" fill-rule="nonzero"/><path fill="#000000" d="M 242.09375 1467.238281 C 240.664062 1467.238281 239.296875 1466.457031 238.613281 1465.089844 C 179.996094 1348.628906 150.28125 1223.777344 150.28125 1094 C 150.28125 1071.546875 151.203125 1048.855469 153.027344 1026.566406 C 153.203125 1024.425781 155.089844 1022.835938 157.222656 1023 C 159.367188 1023.175781 160.964844 1025.054688 160.792969 1027.203125 C 158.984375 1049.277344 158.070312 1071.757812 158.070312 1094 C 158.070312 1222.550781 187.507812 1346.222656 245.566406 1461.59375 C 246.535156 1463.515625 245.761719 1465.855469 243.84375 1466.824219 C 243.28125 1467.105469 242.679688 1467.238281 242.09375 1467.238281 " fill-opacity="1" fill-rule="nonzero"/><path fill="#000000" d="M 1916.78125 840.09375 C 1915.207031 840.09375 1913.714844 839.136719 1913.125 837.558594 C 1888.597656 771.464844 1855.003906 708.371094 1813.3125 650.007812 C 1812.066406 648.253906 1812.480469 645.828125 1814.230469 644.566406 C 1815.972656 643.320312 1818.410156 643.730469 1819.65625 645.484375 C 1861.75 704.398438 1895.65625 768.109375 1920.4375 834.847656 C 1921.179688 836.863281 1920.152344 839.109375 1918.136719 839.859375 C 1917.699219 840.023438 1917.234375 840.09375 1916.78125 840.09375 " fill-opacity="1" fill-rule="nonzero"/><path fill="#000000" d="M 227.914062 1349.3125 C 226.257812 1349.3125 224.726562 1348.253906 224.203125 1346.601562 C 200 1269.914062 187.726562 1190.105469 187.726562 1109.371094 C 187.726562 1087.851562 188.613281 1066.09375 190.359375 1044.722656 C 190.535156 1042.585938 192.425781 1041.015625 194.554688 1041.15625 C 196.699219 1041.332031 198.296875 1043.222656 198.121094 1045.359375 C 196.390625 1066.519531 195.515625 1088.066406 195.515625 1109.371094 C 195.515625 1189.304688 207.667969 1268.324219 231.632812 1344.25 C 232.277344 1346.304688 231.140625 1348.488281 229.089844 1349.136719 C 228.699219 1349.257812 228.300781 1349.3125 227.914062 1349.3125 " fill-opacity="1" fill-rule="nonzero"/><path fill="#000000" d="M 1236.449219 177.203125 C 1233.523438 177.203125 1230.660156 178.125 1228.222656 179.871094 C 1225.179688 182.082031 1223.175781 185.339844 1222.570312 189.050781 C 1221.328125 196.71875 1226.570312 203.976562 1234.222656 205.214844 C 1241.886719 206.445312 1249.144531 201.21875 1250.386719 193.554688 C 1250.992188 189.839844 1250.101562 186.113281 1247.902344 183.050781 C 1245.707031 180.007812 1242.449219 177.992188 1238.722656 177.382812 C 1237.960938 177.265625 1237.207031 177.203125 1236.449219 177.203125 Z M 1236.496094 213.1875 C 1235.34375 213.1875 1234.160156 213.09375 1232.980469 212.894531 C 1221.074219 210.972656 1212.953125 199.71875 1214.875 187.8125 C 1215.816406 182.039062 1218.933594 176.976562 1223.679688 173.550781 C 1228.421875 170.128906 1234.207031 168.765625 1239.976562 169.707031 C 1245.738281 170.628906 1250.796875 173.765625 1254.21875 178.492188 C 1257.644531 183.230469 1259.003906 189.019531 1258.082031 194.792969 C 1256.339844 205.519531 1247.023438 213.1875 1236.496094 213.1875 " fill-opacity="1" fill-rule="nonzero"/><path fill="#000000" d="M 1850.132812 569.019531 L 1863.113281 587.652344 L 1871.121094 566.78125 C 1866.03125 567.214844 1858.308594 567.941406 1850.132812 569.019531 Z M 1864.125 599.804688 C 1862.859375 599.804688 1861.660156 599.199219 1860.917969 598.132812 L 1840.105469 568.261719 C 1839.339844 567.160156 1839.207031 565.734375 1839.726562 564.496094 C 1840.265625 563.257812 1841.394531 562.382812 1842.730469 562.183594 C 1859.480469 559.652344 1876.542969 558.5625 1876.703125 558.550781 C 1878.046875 558.453125 1879.300781 559.0625 1880.09375 560.136719 C 1880.886719 561.203125 1881.078125 562.597656 1880.59375 563.835938 L 1867.757812 597.3125 C 1867.246094 598.660156 1866.019531 599.601562 1864.59375 599.773438 C 1864.445312 599.804688 1864.269531 599.804688 1864.125 599.804688 " fill-opacity="1" fill-rule="nonzero"/><path fill="#000000" d="M 452.921875 431.769531 C 451.109375 431.769531 449.492188 430.492188 449.109375 428.660156 C 448.960938 427.949219 445.625 411.078125 457.007812 400.21875 C 460.734375 396.65625 466.589844 395.492188 472.792969 394.257812 C 478.835938 393.054688 485.074219 391.816406 488.867188 388.457031 C 491.761719 385.886719 493.152344 380.011719 494.492188 374.320312 C 496.296875 366.683594 498.160156 358.792969 503.984375 354.105469 C 508.613281 350.390625 515.804688 350.859375 522.765625 351.3125 C 527.851562 351.636719 533.605469 352.007812 535.949219 350.332031 C 539.046875 348.105469 540.253906 342.300781 541.316406 337.191406 C 542.183594 333.015625 542.9375 329.414062 544.753906 326.914062 C 546.023438 325.179688 548.457031 324.796875 550.195312 326.0625 C 551.933594 327.339844 552.316406 329.765625 551.054688 331.511719 C 550.21875 332.648438 549.539062 335.914062 548.945312 338.78125 C 547.660156 344.964844 546.058594 352.644531 540.5 356.648438 C 535.894531 359.96875 528.957031 359.53125 522.257812 359.074219 C 517.039062 358.75 511.132812 358.347656 508.867188 360.179688 C 505.128906 363.175781 503.574219 369.75 502.070312 376.105469 C 500.453125 382.976562 498.773438 390.070312 494.042969 394.269531 C 488.667969 399.039062 481.046875 400.5625 474.316406 401.894531 C 469.476562 402.859375 464.476562 403.855469 462.390625 405.855469 C 454.097656 413.761719 456.710938 426.945312 456.734375 427.085938 C 457.175781 429.1875 455.816406 431.242188 453.714844 431.683594 C 453.449219 431.742188 453.179688 431.769531 452.921875 431.769531 " fill-opacity="1" fill-rule="nonzero"/><path fill="#000000" d="M 1963.988281 720.933594 C 1962.949219 720.933594 1961.917969 720.527344 1961.148438 719.703125 C 1960.183594 718.667969 1957.101562 717.394531 1954.390625 716.261719 C 1948.570312 713.828125 1941.320312 710.804688 1938.457031 704.59375 C 1936.050781 699.433594 1937.8125 692.71875 1939.519531 686.210938 C 1940.832031 681.160156 1942.332031 675.421875 1940.960938 672.851562 C 1938.71875 668.613281 1932.566406 665.839844 1926.605469 663.167969 C 1920.171875 660.273438 1913.527344 657.292969 1910.292969 651.851562 C 1906.625 645.667969 1906.585938 637.886719 1906.542969 631.035156 C 1906.515625 626.09375 1906.472656 621.003906 1904.917969 618.582031 C 1898.765625 609.011719 1885.320312 609.011719 1885.140625 609.011719 C 1883.011719 608.929688 1881.222656 607.304688 1881.210938 605.152344 C 1881.179688 603.011719 1882.890625 601.25 1885.027344 601.222656 C 1885.765625 601.238281 1902.949219 601.121094 1911.46875 614.359375 C 1914.269531 618.699219 1914.296875 624.671875 1914.335938 630.992188 C 1914.363281 637.148438 1914.40625 643.515625 1916.992188 647.875 C 1918.96875 651.191406 1924.480469 653.667969 1929.796875 656.0625 C 1936.957031 659.28125 1944.375 662.613281 1947.855469 669.210938 C 1950.640625 674.460938 1948.804688 681.441406 1947.042969 688.183594 C 1945.757812 693.109375 1944.304688 698.691406 1945.507812 701.320312 C 1947.113281 704.777344 1952.582031 707.054688 1957.398438 709.070312 C 1961.328125 710.707031 1964.730469 712.132812 1966.84375 714.390625 C 1968.308594 715.964844 1968.214844 718.429688 1966.644531 719.898438 C 1965.886719 720.601562 1964.9375 720.933594 1963.988281 720.933594 " fill-opacity="1" fill-rule="nonzero"/><path fill="#000000" d="M 242.058594 1071.0625 C 239.125 1071.0625 236.269531 1071.984375 233.84375 1073.730469 C 230.796875 1075.925781 228.785156 1079.1875 228.179688 1082.90625 C 227.582031 1086.621094 228.460938 1090.34375 230.664062 1093.402344 C 232.867188 1096.445312 236.121094 1098.464844 239.839844 1099.070312 C 243.550781 1099.660156 247.285156 1098.78125 250.335938 1096.574219 C 253.386719 1094.378906 255.394531 1091.121094 256 1087.402344 C 256.601562 1083.683594 255.71875 1079.964844 253.519531 1076.90625 C 251.316406 1073.859375 248.058594 1071.839844 244.339844 1071.242188 C 243.582031 1071.121094 242.816406 1071.0625 242.058594 1071.0625 Z M 242.136719 1107.039062 C 240.964844 1107.039062 239.78125 1106.941406 238.59375 1106.753906 C 232.824219 1105.820312 227.765625 1102.703125 224.347656 1097.957031 C 220.925781 1093.210938 219.558594 1087.425781 220.488281 1081.664062 C 221.425781 1075.890625 224.546875 1070.824219 229.289062 1067.414062 C 234.027344 1063.992188 239.816406 1062.621094 245.585938 1063.554688 C 251.355469 1064.484375 256.414062 1067.617188 259.832031 1072.347656 C 263.253906 1077.09375 264.625 1082.882812 263.691406 1088.640625 C 262.757812 1094.414062 259.632812 1099.480469 254.894531 1102.890625 C 251.125 1105.617188 246.695312 1107.039062 242.136719 1107.039062 " fill-opacity="1" fill-rule="nonzero"/><path fill="#e2d9cd" d="M 405.25 1990.789062 C 405.25 1990.789062 281.351562 1719.222656 352.425781 1367.164062 C 352.425781 1367.164062 544.449219 1528.0625 475.21875 1990.789062 L 405.25 1990.789062 " fill-opacity="1" fill-rule="nonzero"/><path fill="#000000" d="M 407.792969 1986.894531 L 471.863281 1986.894531 C 506.617188 1750.976562 471.824219 1596.066406 436.410156 1507.507812 C 405.199219 1429.46875 368.078125 1387.957031 354.875 1374.816406 C 320.074219 1553.183594 336.175781 1709.785156 356.007812 1810.246094 C 375.542969 1909.199219 402.320312 1974.1875 407.792969 1986.894531 Z M 475.21875 1994.6875 L 405.25 1994.6875 C 403.722656 1994.6875 402.339844 1993.800781 401.707031 1992.410156 C 401.394531 1991.722656 370.292969 1922.808594 348.367188 1811.746094 C 328.140625 1709.300781 311.765625 1548.878906 348.605469 1366.386719 C 348.878906 1365.039062 349.835938 1363.941406 351.132812 1363.480469 C 352.429688 1363.035156 353.871094 1363.292969 354.925781 1364.175781 C 356.917969 1365.84375 404.132812 1406.148438 443.398438 1504 C 479.480469 1593.929688 514.964844 1751.476562 479.074219 1991.367188 C 478.789062 1993.265625 477.152344 1994.6875 475.21875 1994.6875 " fill-opacity="1" fill-rule="nonzero"/><path fill="#ffffff" d="M 435.554688 1966.375 C 435.484375 1966.375 435.410156 1966.363281 435.335938 1966.363281 C 433.1875 1966.246094 431.546875 1964.414062 431.660156 1962.265625 C 441.144531 1788.667969 362.867188 1418.109375 362.074219 1414.382812 C 361.625 1412.277344 362.96875 1410.210938 365.070312 1409.765625 C 367.167969 1409.3125 369.246094 1410.660156 369.691406 1412.761719 C 370.488281 1416.492188 448.980469 1788.0625 439.4375 1962.691406 C 439.324219 1964.757812 437.605469 1966.375 435.554688 1966.375 " fill-opacity="1" fill-rule="nonzero"/><path fill="#ffffff" d="M 529.894531 1549.269531 C 529.894531 1549.269531 370.261719 1837.671875 466.285156 1962.476562 L 517.648438 1962.476562 C 517.648438 1962.476562 620.300781 1737.023438 529.894531 1549.269531 " fill-opacity="1" fill-rule="nonzero"/><path fill="#000000" d="M 468.222656 1958.582031 L 515.105469 1958.582031 C 519.960938 1947.273438 541.378906 1895.007812 553.875 1825.394531 C 566.53125 1754.933594 572.3125 1652.089844 529.667969 1557.980469 C 506.660156 1602.042969 385.230469 1847.046875 468.222656 1958.582031 Z M 517.648438 1966.375 L 466.285156 1966.375 C 465.078125 1966.375 463.941406 1965.808594 463.203125 1964.851562 C 422.554688 1912.019531 420.929688 1825.570312 458.367188 1707.886719 C 486.070312 1620.828125 526.085938 1548.097656 526.484375 1547.378906 C 527.191406 1546.101562 528.566406 1545.320312 530.003906 1545.371094 C 531.460938 1545.417969 532.773438 1546.257812 533.402344 1547.578125 C 580.558594 1645.5 574.710938 1753.566406 561.507812 1826.964844 C 547.226562 1906.359375 521.453125 1963.515625 521.195312 1964.082031 C 520.5625 1965.476562 519.175781 1966.375 517.648438 1966.375 " fill-opacity="1" fill-rule="nonzero"/><path fill="#000000" d="M 490.273438 1974.011719 C 488.1875 1974.011719 486.464844 1972.363281 486.382812 1970.273438 C 481.753906 1851.1875 525.601562 1551.710938 526.042969 1548.703125 C 526.355469 1546.5625 528.339844 1545.101562 530.460938 1545.40625 C 532.589844 1545.726562 534.0625 1547.695312 533.75 1549.832031 C 533.304688 1552.835938 489.566406 1851.605469 494.164062 1969.964844 C 494.25 1972.113281 492.574219 1973.921875 490.425781 1974.011719 C 490.375 1974.011719 490.324219 1974.011719 490.273438 1974.011719 " fill-opacity="1" fill-rule="nonzero"/><path fill="#ffffff" d="M 225.128906 1656.777344 C 225.128906 1656.777344 361.113281 1703.175781 410.351562 1977.847656 L 356.867188 1977.847656 C 356.867188 1977.847656 245.246094 1827 225.128906 1656.777344 " fill-opacity="1" fill-rule="nonzero"/><path fill="#000000" d="M 358.855469 1973.953125 L 405.683594 1973.953125 C 362.738281 1741.203125 256.226562 1675.914062 229.847656 1663.082031 C 250.488281 1818.378906 347.214844 1957.660156 358.855469 1973.953125 Z M 410.351562 1981.746094 L 356.867188 1981.746094 C 355.628906 1981.746094 354.46875 1981.15625 353.734375 1980.164062 C 352.609375 1978.652344 241.269531 1826.53125 221.257812 1657.238281 C 221.101562 1655.898438 221.640625 1654.589844 222.679688 1653.753906 C 223.722656 1652.902344 225.125 1652.667969 226.386719 1653.089844 C 227.816406 1653.574219 261.835938 1665.5625 302.210938 1711.746094 C 339.164062 1754.027344 388.589844 1834.394531 414.1875 1977.167969 C 414.390625 1978.296875 414.082031 1979.46875 413.339844 1980.355469 C 412.601562 1981.238281 411.503906 1981.746094 410.351562 1981.746094 " fill-opacity="1" fill-rule="nonzero"/><path fill="#000000" d="M 381.117188 1974.011719 C 379.242188 1974.011719 377.589844 1972.65625 377.277344 1970.757812 C 357.046875 1848.488281 269.5 1725.367188 268.617188 1724.132812 C 267.363281 1722.386719 267.765625 1719.949219 269.511719 1718.699219 C 271.257812 1717.449219 273.691406 1717.851562 274.945312 1719.597656 C 275.839844 1720.835938 364.4375 1845.441406 384.960938 1969.480469 C 385.3125 1971.605469 383.878906 1973.609375 381.757812 1973.953125 C 381.539062 1973.988281 381.328125 1974.011719 381.117188 1974.011719 " fill-opacity="1" fill-rule="nonzero"/><path fill="#e85556" d="M 277.589844 1956.054688 L 613.074219 1956.054688 L 620.601562 2114.734375 C 622.445312 2153.644531 591.398438 2186.195312 552.445312 2186.195312 L 360.847656 2186.195312 C 314.761719 2186.195312 277.410156 2148.816406 277.453125 2102.726562 L 277.589844 1956.054688 " fill-opacity="1" fill-rule="nonzero"/></svg>