<svg width="681" height="728" viewBox="0 0 681 728" fill="none" xmlns="http://www.w3.org/2000/svg">
    <path
        d="M275.657 75H286.515L296.769 76.2059L308.229 79.2207L317.88 82.8384L327.531 88.265L335.976 94.2946L343.818 101.53L349.849 108.163L356.484 117.81L361.31 126.854L364.929 136.501L367.342 146.752L368.548 157.002L369.151 167.855L448.169 168.458H622.491L623.094 169.061V513.348L620.681 513.951L556.14 508.524L502.456 503.701L518.139 507.319L552.521 513.951L595.347 522.392L659.285 535.055L679.794 539.275L681 539.878V628.512L679.19 629.115L665.92 627.307L622.491 622.483L548.298 614.042L498.234 608.615L489.789 608.012L490.996 610.424V687.602L459.63 688.205H271.435L217.148 686.999H195.433L190.004 691.22L182.163 697.852L175.528 702.676L165.274 709.911L155.019 715.941L146.575 720.162L134.511 724.382L120.638 727.397L117.019 728H94.0974L82.6368 724.985L74.1922 720.162L68.1603 715.338L63.3348 710.514L57.9061 702.676L54.8902 696.043L52.4774 688.205H1.20638L0 687.602V365.624L0.603189 365.021L10.2542 365.624L81.4305 372.86L103.748 375.271L139.337 378.889L177.941 382.507L201.465 384.919L240.672 388.536L238.863 387.934L214.735 384.316L77.2081 365.021L76.605 364.418V323.417L85.6528 324.02L141.749 330.05L173.718 334.271L208.1 339.094L237.656 342.712L291.34 349.344L300.388 350.55V249.857H295.562L288.324 251.063H273.848L259.371 248.651L248.514 245.033L240.069 241.416L231.021 235.989L221.37 228.151L214.132 220.915L206.291 210.665L200.259 199.812L196.036 188.958L193.02 174.488L192.417 170.267V155.193L194.83 141.928L197.243 132.884L201.465 123.236L208.1 112.986L214.132 105.148L219.561 99.1182L224.989 94.2946L235.244 87.0591L244.291 82.2355L256.958 78.0148L269.022 75.603L275.657 75ZM245.498 389.139V389.742L252.133 390.345L249.72 389.139H245.498Z"
        fill="#122C59" />
    <path
        d="M76.5962 323L85.643 323.604L141.733 329.639L173.698 333.864L208.076 338.693L237.629 342.314L291.307 348.954L300.354 350.161V345.936H300.957V418.365L300.354 418.969L276.832 419.572H175.508L171.286 414.14L167.667 411.726L164.049 410.519H156.811L151.383 412.933L148.367 415.951L145.955 420.176L145.352 429.833L148.367 435.869L153.192 439.49L156.811 440.697H163.445L167.667 439.49L173.095 434.662L174.905 431.644L175.508 429.23L176.111 420.779H300.354L300.957 421.383V432.851L258.738 433.455L253.31 434.058L249.692 436.472L246.676 441.301L246.073 446.733L248.485 452.769L252.104 455.787L254.516 456.994L300.354 457.598L300.957 458.201V536.063L310.607 537.27L345.588 542.702L348 543.306V567.449L346.794 574.088L343.175 579.52L338.953 583.142L332.922 585.556L325.685 586.159H292.513L265.373 585.556L259.945 578.313L256.326 574.088L251.501 569.863L246.676 566.241L246.073 563.827L247.882 555.377V548.134L246.073 541.495L242.454 536.666L237.629 534.252L232.201 533.045L220.742 531.838L217.123 529.423L213.504 526.405L212.901 524.595L218.932 518.559L221.948 513.127L223.154 506.487V479.326L225.567 478.119L226.17 475.101V467.858L223.154 458.805L218.932 452.769L214.711 448.544L205.664 443.112L194.808 439.49L191.189 438.887H181.539L175.508 440.094L168.27 443.112L161.636 447.94L156.811 453.373L152.589 461.219L150.78 467.858L150.177 476.912L150.78 485.966L148.971 488.984L155.605 484.155L157.414 483.551H163.445L168.27 485.966L170.08 487.776L173.095 487.173L179.73 482.948L184.555 478.723L187.57 473.291L189.983 467.255L191.189 463.03L194.205 465.444L197.22 469.066L205.664 474.498L212.298 476.912L221.345 478.723L222.551 481.741V494.416L221.948 509.505L220.139 514.937L216.52 519.766L211.695 523.991L206.87 525.802H194.205V541.495L201.442 543.306L215.314 548.134L227.979 554.17L239.438 561.413L249.692 569.863L259.945 580.124L263.563 584.349L265.976 588.574L270.801 597.627L276.229 612.113L281.657 632.635L284.069 648.328L285.879 663.417L286.482 673.075V685.75H255.723L251.501 686.353V686.957H195.411L189.983 691.182L182.142 697.821L175.508 702.65L165.255 709.893L155.002 715.928L146.558 720.154L134.496 724.379L120.624 727.396L117.005 728H94.0867L82.6274 724.982L74.1837 720.154L68.1525 715.325L63.3276 710.496L57.8995 702.65L54.8839 696.01L52.4714 688.164H1.20624L0 687.56V365.25L0.60312 364.647L10.253 365.25L81.4212 372.493L103.737 374.908L139.321 378.529L177.92 382.151L201.442 384.565L240.645 388.186L238.835 387.583L214.711 383.961L77.1993 364.647L76.5962 364.043V323ZM245.47 388.79V389.393L252.104 389.997L249.692 388.79H245.47Z"
        fill="#E85556" />
    <path
        d="M441.5 252L452.391 252.603L463.283 254.411L462.678 256.821L459.652 259.232V261.039L462.678 258.629L465.703 255.616L474.174 258.629L470.543 262.847L447.551 285.747L442.71 289.966L437.264 294.787H436.054L437.264 297.8L437.87 300.813L437.264 303.224L439.685 309.853L443.315 312.866L446.946 314.071V315.276L436.659 318.289L429.399 321.905L424.558 326.124L420.928 333.355L420.322 339.382L420.928 338.176L422.138 332.753L424.558 327.932L427.583 324.316L433.634 320.7L441.5 317.687L447.551 315.879H451.786L452.391 316.482L452.996 330.342H453.601V314.071L454.207 311.661L449.971 313.468L445.13 312.866L441.5 310.455L439.08 307.442L437.87 304.429L438.475 300.211L442.105 295.389L446.341 293.582L451.786 294.184L454.812 295.992L457.837 299.005V293.582L458.442 288.761L480.83 288.158L491.721 286.35H494.141L494.746 291.171L494.141 314.071L491.721 318.892L487.486 323.713L483.855 324.918L472.964 325.521V332.753L462.678 338.779L459.652 339.984L452.996 333.958L447.551 330.342L443.315 327.329L446.341 330.342L454.207 336.368L459.047 339.984L456.627 342.395L451.181 345.408L450.576 349.626H451.786L452.391 345.408L462.072 339.984L475.384 332.753L482.04 328.534V327.932L475.384 331.547L473.569 330.945V327.932L474.779 326.726L480.83 325.521H485.065L488.091 328.534L492.326 333.958L494.141 338.176V345.408L490.511 352.037L484.46 356.858L480.225 359.268H479.014V360.474L486.275 356.858L488.696 354.447H490.511L497.772 369.513L499.587 373.732L502.612 380.361L509.873 398.439L516.529 415.916L522.58 434.597L525 447.855V452.074L523.185 457.497L518.949 462.318L512.293 466.537L504.428 470.153L489.906 474.974L475.384 477.987L463.283 479.795L449.971 481H436.659L420.928 479.192L408.826 476.179L399.75 472.563L393.699 468.345L388.859 462.921L385.833 456.895L384.018 449.663V433.995L385.833 423.147L391.279 405.671V404.466L386.438 418.929L383.413 429.776L380.388 430.379L368.891 427.366L365.261 424.955L361.63 419.532L358.605 412.3L358 409.889V399.042L360.42 390.003L365.261 380.361L370.707 372.526L376.152 366.5L377.967 364.692L376.757 364.089V267.668L379.178 262.847L383.413 259.232L386.438 258.026L427.583 257.424L430.609 255.616L432.424 253.808L436.054 252.603L441.5 252Z"
        fill="#2C2D2D" />
    <path
        d="M97.6718 420H109.105L145.21 420.604L145.812 429.658L148.821 435.695L153.635 439.316L157.245 440.524H163.864L168.077 439.316L173.492 434.487L175.298 431.469L175.899 429.055L176.501 420.604H300.462L301.063 421.207V432.676L258.941 433.28L253.525 433.884L249.915 436.298L246.906 441.127L246.304 446.56L248.711 452.596L252.322 455.615L254.729 456.822L300.462 457.425L301.063 458.029V535.898L310.691 537.105L345.593 542.538L348 543.142V567.287L346.797 573.927L343.186 579.36L338.974 582.982L332.956 585.396L325.735 586H292.639L265.56 585.396L260.144 578.153L256.534 573.927L251.72 569.702L246.906 566.08L246.304 563.665L248.109 555.215V547.971L246.304 541.331L242.694 536.502L237.88 534.087L232.464 532.88L221.031 531.673L217.42 529.258L213.81 526.24L213.208 524.429L219.225 518.393L222.234 512.96L223.438 506.32V479.156L225.845 477.949L226.446 474.931V467.687L223.438 458.633L219.225 452.596L215.013 448.371L205.987 442.938L195.155 439.316L191.545 438.713H181.917L175.899 439.92L168.678 442.938L162.059 447.767L157.245 453.2L153.033 461.047L151.228 467.687L150.626 476.742L151.228 485.796L147.617 490.625L147.015 492.436V499.68L149.422 504.509L151.829 506.924V525.636L154.236 537.709L156.042 541.331V543.142L141.6 548.575L128.963 555.215L119.335 561.855L111.512 568.495L103.689 576.342L99.477 581.171L95.8665 585.396H88.6455L82.628 583.585L76.6105 578.153L74.2035 573.324L73.6018 570.909L73 561.855V446.56L73.6018 435.091L77.2123 427.847L82.0263 423.622L86.8403 421.207L97.6718 420Z"
        fill="#E85556" />
    <path
        d="M275.894 75H286.706L296.918 76.2055L308.331 79.2192L317.942 82.8356L327.553 88.2603L335.962 94.2877L343.771 101.521L349.778 108.151L356.386 117.795L361.191 126.836L364.795 136.479L367.198 146.726L368.399 156.973L369 169.027L366.597 183.493L361.792 197.959L355.785 209.411L350.379 217.247L343.171 225.082L337.765 230.507L328.754 237.137L317.942 243.164L305.328 247.986L300.522 249.795H295.717L288.509 251H274.092L259.676 248.589L248.863 244.973L240.454 241.356L231.444 235.932L221.833 228.096L214.625 220.863L206.816 210.616L200.809 199.767L196.604 188.918L193.601 174.452L193 170.233V155.164L195.403 141.904L197.805 132.863L202.01 123.219L208.618 112.973L214.625 105.137L220.031 99.1096L225.437 94.2877L235.648 87.0548L244.659 82.2329L257.273 78.0137L269.287 75.6027L275.894 75Z"
        fill="#3C6CBF" />
    <path
        d="M96.4 587H144.4L148.6 593.667L152.8 597.909L156.4 600.939L158.8 599.727L164.2 593.667L169 587H264.4L266.8 590.03L271.6 600.333L275.8 611.848L281.2 632.455L283.6 648.212L285.4 663.364L286 673.061V685.788H262.6L251.2 685.182L251.8 680.939V669.424L249.4 651.848L245.8 633.667L240.4 613.061L234.4 594.273L233.2 593.667L239.8 613.667L245.8 637.909L249.4 657.303L250.6 667V683.364L250 683.97H211.6L197.8 683.364L199 680.939L202 677.909L205 672.455L206.2 671.242L215.8 668.818L221.8 668.212H244.6L242.8 665.182L243.4 667.606L242.8 668.212L221.8 667.606L212.8 668.818L205.6 670.636V659.727L202.6 654.273V653.061L215.2 654.273L231.4 656.091L239.2 658.515L242.8 661.545L242.2 659.727L234.4 656.091V655.485H239.8L241 654.273V653.061L225.4 650.03L218.8 649.424H205L197.8 650.636L191.8 648.212L181.6 647H165.4L150.4 648.212L125.8 651.848H124L125.2 647L131.2 628.818H130L128.2 635.485L122.8 651.242L120.4 653.061L107.8 656.697L106.6 657.909L118 654.273L134.2 651.242L152.2 648.818L168.4 647.606H179.8L190.6 648.818V659.727L192.4 671.242L195.4 678.515L196.6 679.727V682.758L191.8 687.606L186.4 691.848L178.6 698.515L168.4 705.788L157 713.061L146.8 718.515L135.4 722.758L119.2 726.394L116.2 727H96.4L92.2 725.788L82.6 722.758L76.6 719.727L73.6 717.909V716.697L71.2 715.485L67.6 712.455L61.6 703.97L57.4 695.485L55 687V675.485L56.8 663.97L60.4 650.636L65.2 637.909L73.6 620.333L80.8 608.212L88 597.909L92.8 591.242L96.4 587Z"
        fill="#FAFBFB" />
    <path
        d="M349.333 544L356.598 544.603L395.949 550.628L456.488 560.268L503.708 567.498L514 569.305V569.908H506.13L458.909 565.088L412.294 560.87V598.226L424.402 599.431L494.627 607.264V607.866H490.39L491.6 610.276V687.397L460.12 688H271.238V687.397H288.189L286.373 660.285L283.951 640.402L280.924 625.339L277.897 613.289L273.659 601.841L269.422 592.201L267 587.983V587.381H318.458L332.988 586.778L338.436 584.971L343.279 581.356L346.912 575.933L348.123 573.523L348.728 569.908L349.333 544Z"
        fill="#E85556" />
    <path
        d="M406.996 373H483.245L488.086 378.4V379.6L490.506 380.8L495.348 385L498.373 386.2L489.901 379L485.665 373.6V373H498.373L500.189 374.8L508.661 395.8L515.318 413.2L522.579 434.8L525 448V452.2L523.185 457.6L518.949 462.4L512.292 466.6L504.425 470.2L489.901 475L475.378 478L463.275 479.8L449.961 481H436.648L420.914 479.2L408.811 476.2L399.734 472.6L393.682 468.4L388.841 463L385.815 457L384 449.8V434.2L385.815 423.4L391.262 406L399.129 388L405.785 374.2L406.996 373Z"
        fill="#FBFCFB" />
    <path
        d="M146.014 419V420.807L145.41 426.228H144.806V421.409H97.0912L86.2194 422.614L81.3875 425.023L77.1595 428.637L73.5356 435.865L72.9316 447.31V562.357L73.5356 571.392L75.9516 577.415L80.1795 582.234L85.0114 584.643L88.0313 585.246H95.2792L101.923 578.018L106.151 573.199L113.399 565.971L121.251 559.947L129.707 554.526L142.39 547.901L154.47 543.684H155.678L152.658 536.456L150.846 526.216V507.544L147.222 503.327L146.014 500.316V493.088L148.43 488.269L149.034 489.474L155.678 484.655L157.49 484.053H163.53L168.362 486.462L170.174 488.269L173.194 487.667L179.838 483.45L184.67 479.234L187.689 473.813L190.105 467.789L191.313 463.573L194.333 465.982L197.353 469.596L205.809 475.018L212.453 477.427L221.513 479.234L222.721 482.246V494.895L222.117 509.953L220.305 515.374L216.681 520.193L211.849 524.409L207.017 526.216H194.333V541.877L201.581 543.684L215.473 548.503L228.157 554.526L239.632 561.754L249.9 570.187L260.168 580.427L263.792 584.643L265 587.655L168.966 588.257L163.53 595.485L157.49 602.111L155.074 600.906L147.826 594.281L144.202 588.86V587.655L95.8832 588.257L90.4473 594.883L83.8034 604.52L77.7635 613.556L70.5157 626.807L64.4758 639.456L59.0399 654.515L56.0199 666.561L54.812 675.596V687.041L57.2279 695.474L62.0598 705.111L66.8917 711.135V712.339L69.3077 713.544L72.9316 716.556V717.76L75.9516 718.965L81.9915 721.977L91.6553 724.988L95.8832 726.193H115.815L132.726 722.579L143.598 718.965L153.866 714.146L166.55 706.316L176.818 699.088L182.858 694.269L190.709 687.643L195.541 683.427L196.145 682.825V679.813L193.125 674.994L191.313 668.971L190.105 659.936V652.105L190.709 649.094L179.838 648.491H168.362L146.618 650.298L123.063 653.912L111.587 656.924L106.151 658.731V656.924L115.211 653.912L121.251 652.105L124.271 644.877L129.707 629.216H130.915L129.707 634.637L123.667 652.105L133.33 650.298L150.242 647.889L165.342 646.684H181.65L191.917 647.889L197.957 650.298L205.205 649.094H219.097L229.365 650.298L240.236 652.708L242.048 654.515L240.236 656.322H236.009L243.256 659.936L243.86 662.345L237.821 658.731L231.781 656.924L205.205 653.912L202.789 653.31L206.413 659.936V670.175L216.077 667.766L222.117 667.164H228.761L243.256 667.766L242.048 664.754L244.464 665.959L245.672 668.368L245.068 668.971H222.117L212.453 670.175L206.413 671.982L203.393 676.801L200.373 681.018L198.561 682.825L211.849 683.427H250.504V667.164L248.088 650.298L243.86 630.421L237.821 608.135L233.593 595.485V594.281L235.405 594.883L241.444 613.556L246.88 634.035L251.712 659.333L252.92 669.573V681.018L251.712 685.234H255.94V685.836L251.712 686.439V687.041H195.541L190.105 691.257L182.254 697.883L175.61 702.702L165.342 709.93L155.074 715.953L146.618 720.17L134.538 724.386L120.647 727.398L117.023 728H94.0712L82.5954 724.988L74.1396 720.17L68.0997 715.351L63.2678 710.532L57.8319 702.702L54.812 696.076L53 690.053V673.789L55.416 659.936L59.6439 646.082L65.6838 632.228L72.9316 617.772L79.5755 606.93L86.2194 597.292L93.4672 587.655H88.0313L81.3875 585.246L76.5556 581.632L72.9316 576.211L71.7236 573.199L71.1197 568.982V439.48L72.3276 432.854L75.9516 427.433L81.3875 422.614L85.6154 420.807L88.6353 420.205L103.735 419.602H144.806L146.014 419Z"
        fill="#050505" />
    <path
        d="M516.385 266H551.631L557.708 266.598L562.569 270.782L564.392 273.77L565 281.54L564.392 361.034L562.569 365.218L558.315 368.805L551.631 370H541.3L530.969 359.839L521.246 352.667L507.877 345.494L498.762 341.908L495.115 340.713L493.292 334.736L490.254 329.356L489.038 326.966H487.823L486 323.977L490.862 319.793L493.9 314.414L494.508 307.839V284.529L502.408 281.54L509.092 276.759L513.346 271.379L516.385 266Z"
        fill="#D9D9D9" />
    <path
        d="M160.152 543H161.957V548.324L163.761 552.465L166.768 554.831L172.181 557.197L174.587 557.789H186.616L193.232 555.423L196.841 553.056L199.246 549.507L198.645 543L214.884 548.324L227.514 554.239L238.942 561.338L249.167 569.62L259.391 579.676L263 583.817V585H169.775L168.572 580.859L167.37 580.268H163.159L160.754 582.634L159.551 585L155.942 584.408L152.935 580.859L148.725 579.676L145.717 580.859L143.913 585H97L98.2029 582.634L116.246 564.887L127.072 557.197L137.899 551.282L146.319 547.732L160.152 543Z"
        fill="#FAFBFB" />
    <path
        d="M491.967 286H494.393L495 290.787L494.393 313.528L491.967 318.315L487.721 323.102L484.082 324.299L473.164 324.898V332.079L462.852 338.063L459.82 339.26L453.148 333.276L447.689 329.685L443.443 326.693L446.475 329.685L454.361 335.669L459.213 339.26L456.787 341.654L451.328 344.646L450.721 348.835H451.934L452.541 344.646L462.246 339.26L475.59 332.079L482.262 327.89V327.291L475.59 330.882L473.77 330.283V327.291L474.984 326.094L481.049 324.898H485.295L488.328 327.89L492.574 333.276L494.393 337.465V344.646L490.754 351.228L484.689 356.016L479.23 359.008L477.41 358.409L475.59 354.819L476.197 350.031L474.984 348.236L472.557 348.835L471.344 351.228L471.951 353.024L474.377 354.22L476.803 358.409L476.197 360.205L471.951 361.402L465.279 362H456.18L447.689 360.803L437.984 357.213L431.311 353.622L431.918 351.827L441.016 348.236L444.656 347.638L446.475 347.039L445.262 344.047L444.656 343.449H441.623L440.41 344.646L439.197 347.638L431.918 351.228H428.279L424.033 345.244L421 337.465L422.213 332.079L424.639 327.291L427.672 323.701L433.738 320.11L441.623 317.118L447.689 315.323H451.934L452.541 315.921L453.148 329.685H453.754V313.528L454.361 311.134L450.115 312.929L445.262 312.331L441.623 309.937L439.197 306.945L437.984 303.953L438.59 299.764L442.23 294.976L446.475 293.181L451.934 293.78L454.967 295.575L458 298.567V293.181L458.607 288.394L481.049 287.795L491.967 286Z"
        fill="#F7FAF9" />
    <path
        d="M181.335 439H190.916L200.497 441.396L205.886 443.793L212.473 447.387L218.461 452.779L222.653 458.171L225.647 465.959L226.246 468.355V475.544L225.048 478.539L223.251 480.336V506.696L222.054 513.286L218.461 519.276L213.072 524.668V526.465L214.868 527.065V528.263L217.263 529.461L220.257 531.258L234.629 533.055L240.617 535.452L243.611 537.848L246.605 543.24L247.802 548.032V555.221L246.006 564.806L249 567.802V569L246.006 567.802L238.82 561.811L226.246 554.023L214.868 548.631L199.299 543.24L193.91 541.442V525.866L206.485 525.267L211.874 522.871L216.665 518.677L220.257 512.687L220.856 509.691L221.455 492.318V482.134L220.856 479.737L209.479 477.341L201.096 473.147L195.108 468.355L191.515 464.161L189.12 471.35L186.126 477.341L181.335 482.733L172.353 488.724L169.359 488.124L165.168 485.129L163.371 484.53H157.383L152.593 486.926L150.198 489.323H149L149.599 486.926L150.198 486.327L149.599 473.747L150.796 465.959L153.192 459.369L156.784 453.378L162.174 447.387L168.162 443.194L175.347 440.198L181.335 439Z"
        fill="#030303" />
    <path
        d="M190.548 463L193.573 465.406L196.597 469.014L205.065 474.427L211.718 476.832L220.79 478.636L222 481.643V494.273L221.395 509.308L219.581 514.72L215.952 519.531L211.113 523.741L206.274 525.545H192.968V541.783L189.944 546.594L186.919 548.399L177.242 549L172.403 547.797L169.379 544.79L167.565 541.783V506.902L162.121 509.308H156.677L150.629 506.301L147 500.888V491.867L149.419 488.259L153.653 484.65L156.677 483.448H162.726L167.565 485.853L169.379 487.657L172.403 487.056L179.056 482.846L183.895 478.636L186.919 473.224L189.339 467.21L190.548 463Z"
        fill="#F8FAFA" />
    <path
        d="M402.871 266H426.774L429.839 279.896L434.742 293.792L437.194 297.417L437.806 300.438L437.194 302.854L439.645 309.5L443.323 312.521L447 313.729V314.938L436.581 317.958L429.226 321.583L424.323 325.813L420.645 333.062L420.032 339.104L414.516 341.521L396.742 349.979L391.839 353H390.613L390 334.271V309.5L390.613 274.458L393.065 270.229L396.742 267.208L402.871 266Z"
        fill="#D9D9D9" />
    <path
        d="M519.196 258H570.029L573.618 259.813L577.804 264.648L578.402 265.857L579 276.13V386.122L577.206 390.957L573.618 395.187L568.235 397H551.49L550.294 387.935L547.304 380.683L543.716 374.035V372.826L555.676 372.222L561.657 369.804L564.049 366.783L565.843 361.948V274.317L563.451 269.483L559.265 266.461L557.471 265.857L518.598 265.252L518 263.439L519.196 258Z"
        fill="#E85556" />
    <path
        d="M505.374 246L510.184 246.604L513.791 249.019L516.798 252.643L518 255.058V262.909L515.595 268.948L511.387 275.591L505.975 280.422L497.558 284.649L491.546 286.461L480.724 288.273H458.479L457.877 298.539L455.472 297.331L454.871 295.519L448.859 293.708L444.65 294.312L441.043 296.727L438.638 300.955L439.239 305.786L441.644 309.409L445.252 311.825L450.061 312.429L451.865 311.221H454.27V331.149L453.067 332.357L452.466 329.942L451.865 316.052H447.656L435.031 320.279L429.62 323.299L426.613 325.714L423.607 330.545L421.804 335.981V339H420L420.601 332.961L424.209 325.714L429.62 320.883L436.834 317.26L445.252 314.844H447.055V313.636L443.448 313.032L439.239 309.409L436.834 302.766L437.436 297.935L436.233 296.727V294.312L442.847 288.877L453.067 279.214L476.515 255.662L480.724 250.831L485.534 247.208H490.945L493.951 249.019V252.039L493.35 253.851L499.963 248.416L505.374 246Z"
        fill="#030303" />
    <path
        d="M389.13 357H389.74L390.961 364.18L392.792 367.172L397.065 370.762L400.727 371.959L405 372.557L404.39 375.549L397.065 391.107L392.182 402.475L386.688 418.631L383.636 429.402L380.584 430L368.987 427.008L365.325 424.615L361.662 419.23L358.61 412.049L358 409.656V398.885L360.442 389.91L365.325 380.336L370.818 372.557L376.312 366.574L384.857 359.992L389.13 357Z"
        fill="#F9FBFA" />
    <path
        d="M491.968 286H494.394L495 290.854L494.394 313.91L491.968 318.764L487.723 323.618L484.085 324.831L473.17 325.438V332.719L462.862 338.787L459.83 340L453.16 333.933L451.947 332.719L453.16 330.292H453.766V313.91L454.372 311.483L450.128 313.303L445.277 312.697L441.638 310.27L439.213 307.236L438 304.202L438.606 299.955L442.245 295.101L446.489 293.281L451.947 293.888L454.979 295.708L458.011 298.742V293.281L458.617 288.427L481.053 287.82L491.968 286Z"
        fill="#F5F9F7" />
    <path
        d="M500 372L540.037 372.598L543.622 376.784L547.805 385.157L549 389.343V399.51L546.61 406.686L542.427 414.461L537.049 421.039L533.463 425.225L528.683 429.412L523.902 433L522.11 431.206L513.146 404.892L507.171 389.941L500 372.598V372Z"
        fill="#F8FAF9" />
    <path
        d="M386.524 258H427L426.405 265.227L399.024 265.83L394.857 267.636L391.286 271.852L390.095 275.466L389.5 354.966L383.548 359.784L378.19 364H377V267.636L379.381 262.818L383.548 259.205L386.524 258Z"
        fill="#E85556" />
    <path
        d="M233.646 594L235.458 594.604L241.5 613.315L246.938 633.838L251.771 659.189L252.979 669.45V680.919L251.771 685.144H256V685.748L251.771 686.351V686.955H195.583L190.146 691.18L182.292 697.82L175.646 702.649L165.375 709.892L155.104 715.928L146.646 720.153L134.562 724.378L120.667 727.396L117.042 728H94.0833L82.6042 724.982L74.1458 720.153L68.1042 715.324L63.2708 710.495L57.8333 702.649L54.8125 696.009L53 689.973V673.676L55.4167 659.793L59.6458 645.91L60.8542 644.703L61.4583 647.117L57.2292 661L55.4167 670.054L54.8125 675.486V686.955L57.2292 695.405L62.0625 705.063L66.8958 711.099V712.306L69.3125 713.514L72.9375 716.532V717.739L75.9583 718.946L82 721.964L91.6667 724.982L95.8958 726.189H115.833L132.75 722.568L143.625 718.946L153.896 714.117L166.583 706.27L176.854 699.027L182.896 694.198L190.75 687.559L195.583 683.333L196.188 682.73V679.712L193.167 674.883L191.354 668.847L190.146 659.793V651.946L190.75 648.928L179.875 648.324H168.396L146.646 650.135L123.083 653.757L111.604 656.775L106.167 658.586V656.775L115.229 653.757L121.271 651.946L124.292 644.703L129.729 629.009H130.938L129.729 634.441L123.688 651.946L133.354 650.135L150.271 647.721L165.375 646.514H181.688L191.958 647.721L198 650.135L205.25 648.928H219.146L229.417 650.135L240.292 652.55L242.104 654.36L240.292 656.171H236.062L243.312 659.793L243.917 662.207L237.875 658.586L231.833 656.775L205.25 653.757L202.833 653.153L206.458 659.793V670.054L216.125 667.64L222.167 667.036H228.812L243.312 667.64L242.104 664.622L244.521 665.829L245.729 668.243L245.125 668.847H222.167L212.5 670.054L206.458 671.865L203.438 676.694L200.417 680.919L198.604 682.73L211.896 683.333H250.562V667.036L248.146 650.135L243.917 630.216L237.875 607.883L233.646 595.207V594Z"
        fill="#242525" />
    <path
        d="M279.898 131L282.306 131.602L285.315 136.417L288.926 150.259L291.333 153.87L297.954 156.278L310.593 159.889L313 162.898L311.796 165.907L306.981 168.315L291.935 172.528L290.13 173.13L288.324 178.546L285.315 190.583L283.509 194.194L280.5 196L276.889 192.991L274.481 184.565L272.074 175.537L269.667 172.528L258.231 169.519L251.009 167.111L248.602 164.704L248 162.898L251.009 159.889L258.231 157.481L267.259 155.074L270.87 153.269L272.676 149.056L276.287 135.213L278.694 131.602L279.898 131Z"
        fill="#060606" />
    <path
        d="M223.174 480H223.761V506.459L222.587 513.074L219.065 519.088L213.783 524.5V526.304L215.543 526.905V528.108L217.891 529.311L220.826 531.115L234.913 532.919L240.783 535.324L243.717 537.73L246.652 543.142L247.826 547.953V555.169L246.065 564.791L249 567.797V569L246.065 567.797L239.022 561.784L226.696 553.966L215.543 548.554L200.283 543.142L195 541.338V525.703L207.326 525.101L212.609 522.696L217.304 518.486L220.826 512.473L221.413 509.466L222 492.027L223.174 480Z"
        fill="#040404" />
    <path
        d="M253.674 435H301V455.4L300.393 456H253.674L248.82 451.8L247 447.6V442.8L249.427 438L253.674 435Z"
        fill="#D9D9D9" />
    <path
        d="M495.513 343L505.312 346.447L519.4 353.34L529.2 360.234L537.163 367.128L539 370H499.188L496.125 365.979L492.45 358.511L490 353.915L490.613 351.043L495.513 343Z"
        fill="#F5F9F6" />
    <path
        d="M157.157 410H164.451L169.922 412.385L174.176 416.558L176 420.731V431.462L172.353 436.231L168.098 439.808L163.843 441H157.157L152.294 439.212L148.039 435.635L145 429.673L145.608 420.135L149.255 414.173L153.51 411.192L157.157 410Z"
        fill="#030303" />
    <path
        d="M426.96 354H429.984L435.427 357.429L444.5 360.857L452.363 362.571H467.484L473.532 361.429H477.161L482 370H407L408.21 366.571L413.653 357.429L417.282 356.286L426.96 354Z"
        fill="#F1F7F4" />
    <path
        d="M517.4 264L557 264.605L560.6 266.42L563.6 268.84L566 273.68V361.405L563.6 367.455L560 370.48L555.2 372.295H543.2L548.6 382.58V385H547.4L543.2 376.53L540.2 372.9L500.6 372.295L500 374.715L498.2 372.9L497 369.27L490.4 355.355V354.145L487.4 355.96L482 359.59L479 360.195V358.985L486.2 354.75L489.8 351.725L493.4 345.07V337.81L490.4 331.76L486.2 326.315L485 325.71H480.8L474.8 326.92L474.2 327.525V330.55L477.8 329.34L483.2 326.315L482 328.735L474.2 333.575L461 340.835L453.2 345.07L452 349.305H450.8V345.07L455 342.045L458.6 340.23L455.6 337.205L447.2 331.155L443 327.525L443.6 326.315L450.2 331.155L455 334.785L459.8 339.02L462.8 337.81L472.4 332.365L473 325.105L483.8 323.895L488 322.08L492.2 316.635L493.4 313.61L494 290.62V285.78L495.2 285.175L495.8 297.88V309.375L495.2 314.82L491.6 320.87L487.4 324.5L488.6 327.525H489.8L493.4 332.97L495.8 339.02L496.4 341.44L504.2 343.86L514.4 348.7L524 354.75L532.4 361.405L541.4 370.48H551.6L558.2 369.27L562.4 365.64L563.6 362.01L564.2 281.545L563.6 273.68L561.2 270.05L557.6 267.025L551.6 266.42L516.8 265.815L517.4 264ZM496.4 342.65L491 352.33L491.6 355.355L496.4 365.035L499.4 370.48L500 371.085H539L537.2 368.06L532.4 363.22L524 356.565L515.6 351.12L501.8 344.465L496.4 342.65Z"
        fill="#2C2D2D" />
    <path
        d="M441.276 252L452.138 252.593L463 254.37L462.397 256.741L457.569 260.889L438.259 279.852L433.431 284H432.224L429.207 273.333L428 264.444L428.603 257.926L432.224 253.778L435.845 252.593L441.276 252Z"
        fill="#FFAA48" />
    <path
        d="M191.036 0L194.071 0.6L195.893 4.8L199.536 18.6L203.179 28.2L208.036 37.8L213.5 47.4L219.571 57L222 61.2L221.393 64.2L218.964 66L216.536 64.8L212.286 59.4L203.179 44.4L197.107 33L191.643 18.6L188 3L188.607 1.2L191.036 0Z"
        fill="#070807" />
    <path
        d="M419.49 341H421.373L422 343.32L418.863 349.12L415.098 354.92L414.471 355.5H410.078L405.686 354.92L413.216 356.66L411.333 360.72L406.314 369.42L405.686 370H400.667L395.02 367.68L391.255 363.62L390 357.82L390.627 354.34L396.902 350.86L410.078 344.48L418.863 341.58L419.49 341Z"
        fill="#F3F8F6" />
    <path
        d="M473.032 348L475.448 348.603L476.656 350.413V353.429L476.052 355.238L477.864 358.857L480.883 359.46L486.922 355.841L488.734 354.032H490.545L497.792 369.111L498.396 372.127L486.318 372.73L491.753 379.365L499 385.397L497.188 386L492.357 382.381L488.13 378.762L483.299 372.73H406.604L406 370.317L412.039 359.46L413.247 357.651L413.851 359.46L407.812 370.921L482.091 370.317L477.864 363.079V361.873L471.825 363.079H461.558V362.476L471.825 361.27L476.052 360.063L474.844 357.048L474.24 354.635L471.221 353.429L470.617 351.016L473.032 348Z"
        fill="#2B2C2C" />
    <path
        d="M249.987 568L252.382 569.208L257.172 573.437L261.363 578.269L265.554 584.31L292.497 584.914H325.427L335.006 583.706L338 583.102V584.914L332.611 586.726L318.242 587.33H267.949L272.739 596.995L277.529 609.076L281.121 621.761L284.115 636.259L286.51 653.777L288.306 679.751V687H244V686.396L249.987 685.792V685.188L255.975 684.584L286.51 685.188L285.312 662.838L282.318 639.279L279.924 627.198L275.134 609.68L269.146 594.579L265.554 587.934L261.962 582.497L254.777 574.645L249.389 569.208L249.987 568Z"
        fill="#2D2E2E" />
    <path
        d="M465.045 255L474 258.047L470.418 262.312L447.731 285.469L438.179 294L435.791 293.391L434 288.516L434.597 285.469L436.388 284.859L437.582 282.422L443.552 276.938L458.478 261.703L462.657 258.047L465.045 255Z"
        fill="#FFAA48" />
    <path
        d="M60.2298 645L61.4348 647.406L57.2174 661.239L55.4099 670.261L54.8075 675.674V687.101L57.2174 695.522L62.0373 705.145L66.8571 711.159V712.362L69.2671 713.565L72.882 716.572V717.775L75.8944 718.978L81.9193 721.986L91.559 724.993L95.7764 726.196H115.658L132.528 722.587L143.373 718.978L153.615 714.167L166.267 706.348L176.509 699.13L182.534 694.319L190.366 687.703L193.981 685.297L247 685.899V686.5L230.733 687.101H195.186L189.764 691.312L181.932 697.928L175.304 702.739L165.062 709.957L154.82 715.971L146.385 720.181L134.335 724.391L120.478 727.399L116.863 728H93.9689L82.5217 724.993L74.087 720.181L68.0621 715.37L63.2422 710.558L57.8199 702.739L54.8075 696.123L53 690.109V673.87L55.4099 660.036L59.6273 646.203L60.2298 645Z"
        fill="black" />
    <path
        d="M163.518 580H167.746L169.558 581.25L170.162 585L263.792 585.625L265 587.5H168.954L169.558 585.625H167.746L166.538 589.375L161.102 595.625L157.477 600L155.061 599.375L150.228 595L146 589.375V587.5H156.269L160.497 588.125L159.893 585L161.706 581.25L163.518 580Z"
        fill="#2C2D2D" />
    <path
        d="M146 419V420.804L145.403 426.217H144.806V421.406H97.6613L86.9194 422.609L82.1452 425.014L77.9677 428.623L74.3871 435.84L73.7903 447.267V562.139L74.3871 571.16L76.7742 577.174L80.9516 581.986L85.7258 584.391L95.871 585.594L94.6774 586.196L94.0806 588L86.3226 586.797L79.1613 583.189L74.9839 578.377L72.5968 572.964L72 568.754V439.448L73.1935 432.833L76.7742 427.42L82.1452 422.609L86.3226 420.804L89.3065 420.203L104.226 419.601H144.806L146 419Z"
        fill="#2D2E2E" />
    <path
        d="M208.029 596H213.588L217.912 598.471L221 603.412V609.588L218.529 613.294L215.441 615.765L211.735 617L207.412 616.382L202.471 613.294L200 608.353L200.618 602.794L203.088 599.088L206.176 596.618L208.029 596Z"
        fill="#F4F9F6" />
    <path
        d="M184.8 492H189.745L193.455 493.7L195.927 496.533L197.164 498.8L200.255 501.067L202.727 504.467L205.2 506.167L208.291 505.6L211.382 501.633L212 503.333L209.527 506.733L208.291 507.3H203.345L199.018 502.767L197.164 500.5L195.309 505.6L191.6 508.433L190.364 509H184.182L179.855 506.167L178 502.767V497.667L182.327 493.133L184.8 492Z"
        fill="#D4CDFD" />
    <path
        d="M171.415 53L174.434 53.5849L179.868 59.434L184.698 65.283L190.132 71.1321L192.547 74.0566L200.396 78.1509L201 81.0755L197.981 84L193.755 83.4151L188.925 79.9057L181.075 72.3019L175.642 65.8679L169 57.0943L169.604 54.7547L171.415 53Z"
        fill="#060707" />
    <path
        d="M192.591 650L197.909 651.8L201.455 654.2L204.409 659L205 660.8V667.4L202.636 674L198.5 679.4L197.318 680L194.955 674L193.182 669.2L192 662V650.6L192.591 650Z"
        fill="#FFAA48" />
    <path
        d="M421.2 339L422.4 339.61L425.4 346.927L428.4 351.195H432L439.2 347.537L440.4 344.488L441.6 343.268H444.6L446.4 345.098V347.537L443.4 349.366L439.2 349.976L432 353.024L431.4 354.244L434.4 355.463L444 359.732L450.6 361.561L468 363.39V364H453L443.4 361.561L435 357.902L430.8 354.854L426 355.463L415.2 357.902L413.4 359.122V357.293L407.4 356.683L405.6 354.854L414.6 355.463L420.6 345.098L421.2 340.829L408 346.317L394.2 353.634H393V352.415L402.6 346.927L415.2 340.829L421.2 339Z"
        fill="#181919" />
    <path
        d="M165.483 542L167.966 544.462L169.828 547.538L173.552 550L175.414 550.615H187.207L192.172 548.154L195.276 542L198.379 543.846L199 545.077V550L194.655 554.923L188.448 557.385L184.724 558H177.897L169.828 556.154L164.862 553.077L163 550V543.846L165.483 542Z"
        fill="#FFAA48" />
    <path
        d="M494.958 285H495.562L496.167 297.77V309.324L495.562 314.797L491.938 320.878L487.708 324.527L488.917 327.568H490.125L493.75 333.041L495.562 336.689L496.167 344.595L491.938 352.5L492.542 355.541L497.375 365.27L499.792 371.351V372.568H501L500.396 375L498.583 373.176L497.375 369.527L490.729 355.541V354.324L487.708 356.149L482.271 359.797L479.25 360.405V359.189L486.5 354.932L490.125 351.892L493.75 345.203V337.905L490.729 331.824L486.5 326.351L485.292 325.743H481.062L475.021 326.959L474.417 327.568V330.608L478.042 329.392L483.479 326.351L482.271 328.784L474.417 333.649L461.125 340.946L453.271 345.203L452.062 349.459H450.854V345.203L455.083 342.162L458.708 340.338L455.688 337.297L447.229 331.216L443 327.568L443.604 326.351L450.25 331.216L455.083 334.865L459.917 339.122L462.938 337.905L472.604 332.432L473.208 325.135L484.083 323.919L488.312 322.095L492.542 316.622L493.75 313.581L494.354 290.473V285.608L494.958 285Z"
        fill="#242525" />
    <path
        d="M205.263 649H219.184L229.474 650.161L240.368 652.484L242.184 654.226L240.368 655.968H236.132L243.395 659.452L244 661.774L237.947 658.29L231.895 656.548L205.263 653.645L202.842 653.065L206.474 659.452V667H205.868V660.613H204.658L201.632 654.806L198 652.484V651.323H199.211V650.161L205.263 649Z"
        fill="#090909" />
    <path
        d="M153.9 84L156.22 84.5952L166.08 94.7143L172.46 99.4762L178.84 101.857L180 104.833L177.1 108.405L175.36 109L170.72 107.214L162.6 101.262L153.32 91.7381L151 88.7619L151.58 85.7857L153.9 84Z"
        fill="#070707" />
    <path
        d="M148.656 580L152.844 581.189L155.836 584.757L161.221 586.541L160.025 587.135V588.324L157.631 588.919L155.836 588.324L145.664 587.73L147.459 591.297L152.246 596.649L155.238 599.027L157.631 598.432L164.811 590.108L166.607 587.135L167.205 585.946H169L167.803 588.919L163.016 595.459L157.033 602L154.639 600.811L147.459 594.27L143.869 588.919V587.73H96L97.1967 585.351L143.869 585.946L144.467 582.973L146.861 580.595L148.656 580Z"
        fill="#2B2C2C" />
    <path
        d="M153.15 544H158L155.575 545.207L141.025 550.639L129.506 556.675L121.019 562.71L114.956 567.538L97.375 585.041L96.7687 586.249L98.5875 586.852H96.1625L94.95 589.266L89.4937 596.509L79.7937 610.391L71.9125 624.272L64.6375 639.361L62.2125 645.396L61 646L61.6062 641.775L66.4562 630.911L73.125 617.633L79.7937 606.769L86.4625 597.112L91.9187 589.87L93.7375 588.059L94.3438 586.249H95.5562L96.7687 583.834L102.225 577.799L106.469 572.97L113.744 565.728L121.625 559.692L130.112 554.26L142.844 547.621L153.15 544Z"
        fill="#1B1B1B" />
    <path
        d="M466.233 299L471.465 299.609L473.791 302.652V304.478H479.605L484.256 305.696L486 306.304L484.837 309.957L481.93 312.391H479.023L475.535 308.13L474.953 305.696L473.791 306.304L472.628 311.174L469.721 313H465.651L462.744 310.565L461 307.522V303.87L463.907 300.217L466.233 299Z"
        fill="#D4CDFD" />
    <path
        d="M488.625 354H490.5L498 368.286V370H484.25L481.75 367.143L478 361.429L478.625 359.714L486.125 356.286L488.625 354Z"
        fill="#F0F7F2" />
    <path
        d="M280.865 628H282.054L285.027 644.091L286.811 660.182L288 679.848V687H244V686.404L249.946 685.808V685.212L255.892 684.616L286.216 685.212L285.027 663.162L282.054 639.919L280.27 630.384L280.865 628Z"
        fill="#2A2B2B" />
    <path
        d="M233.439 594L235.268 594.604L241.366 613.325L246.854 633.857L251.732 659.221L252.951 669.487V680.961L251.732 685.188H256V685.792L251.732 686.396V687H231V686.396H247.463V685.188H238.927V684.584L249.902 683.981L250.512 683.377V667.071L248.073 650.162L243.805 630.234L237.707 607.89L233.439 595.208V594Z"
        fill="#292A2A" />
    <path
        d="M208.029 596H213.588L217.912 598.471L221 603.412V609.588L218.529 613.294L215.441 615.765L211.735 617L207.412 616.382L202.471 613.294L200 608.353L200.618 602.794L203.088 599.088L206.176 596.618L208.029 596ZM209.265 598.471L205.559 600.941L203.088 604.029L203.706 609.588L206.176 612.676L209.265 613.912L214.206 613.294L217.912 608.971V604.029L215.441 600.324L212.353 598.471H209.265Z"
        fill="#0C0D0D" />
    <path
        d="M129.552 629H130.76L129.552 634.51L123.513 652.265L133.175 650.429L150.084 647.98L165.182 646.755H181.487L191.753 647.98L199 651.041L197.188 652.265L193.565 651.041V649.816L179.675 648.592H168.201L146.461 650.429L122.909 654.102L111.435 657.163L106 659V657.163L115.058 654.102L121.097 652.265L124.117 644.918L129.552 629Z"
        fill="#292A2A" />
    <path
        d="M146 587H156L158.941 587.65L160.118 587H166L164.824 590.25L157.765 599.35L155.412 600L150.118 594.8L146 588.95V587Z"
        fill="#FFAA48" />
    <path
        d="M193.6 685L247 685.608V686.216L230.8 686.824H195.4L190 691.078L182.2 697.765L175.6 702.627L165.4 709.922L155.2 716L154 715.392L157 712.353L168.4 705.059L176.8 698.98L182.8 694.118L190.6 687.431L193.6 685Z"
        fill="black" />
    <path
        d="M427.821 257H428.429V264.682L429.643 273.545L432.071 282.409V284.182L438.75 278.864L458.179 259.955L460 260.545L453.321 267.636L438.75 281.818L433.893 285.955L434.5 289.5L435.714 293.045L436.929 294.227H435.714L435.107 296L431.464 287.136L428.429 278.273L426 265.273L427.214 257.591L427.821 257Z"
        fill="#292A2A" />
    <path
        d="M438.421 298L439.649 299.809L439.035 304.029L441.491 308.853L444.561 311.265L447.632 312.471L451.93 311.868L455 311.265V331.162L453.772 332.368L453.158 329.956L452.544 316.088H448.246L435.351 320.309L429.825 323.324L426.754 325.735L423.684 330.559L421.842 335.985V339H420L420.614 332.971L424.298 325.735L429.825 320.912L437.193 317.294L445.789 314.882H447.632V313.676L443.947 313.074L439.649 309.456L437.193 302.824L438.421 298Z"
        fill="#1A1A1A" />
    <path
        d="M390.083 354H391.292L391.896 362.469L394.312 366.704L397.333 369.123L400.958 370.333L407 370.938L404.583 376.988L396.125 395.136L393.104 402.395L391.896 403L392.5 399.37L404.583 372.148H400.354L395.521 370.333L390.688 365.494L388.875 357.025L379.208 364.284H378L379.208 361.864L390.083 354Z"
        fill="#232424" />
    <path
        d="M93.1786 588L95 588.611L89.5357 595.937L79.8214 609.979L71.9286 624.021L64.6429 639.284L62.2143 645.389L61 646L61.6071 641.726L66.4643 630.737L73.1429 617.305L79.8214 606.316L86.5 596.547L91.9643 589.221L93.1786 588Z"
        fill="#1E1F1F" />
    <path
        d="M483.8 324L485 324.595L480.8 325.786L474.8 326.976L474.2 327.571V330.548L477.8 329.357L483.2 326.381L482 328.762L474.2 333.524L461 340.667L453.2 344.833L452 349H450.8V344.833L455 341.857L458.6 340.071L455.6 337.095L447.2 331.143L443 327.571L443.6 326.381L450.2 331.143L455 334.714L459.8 338.881L462.8 337.69L472.4 332.333L473 325.19L483.8 324Z"
        fill="#191919" />
    <path d="M198.944 683H211.9L249 683.75L246.644 686H196V684.5H198.944V683Z" fill="#2D2E2E" />
    <path
        d="M221.467 494L222 495.111L221.467 509L220.933 507.333H217.2L214.533 504.556L214 503.444L214.533 498.444L217.733 495.667L221.467 494Z"
        fill="#D1CCF9" />
    <path
        d="M59.8571 645L61 647.409L57 661.258L55.2857 670.29L54.7143 675.71V687.151L57 695.581L58.7143 700.398L57.5714 701L55.8571 699.194L53 690.161V673.903L55.2857 660.054L59.2857 646.204L59.8571 645Z"
        fill="black" />
    <path d="M96.6 585L143.4 585.5L144 587H96L96.6 585Z" fill="#2D2E2E" />
    <path
        d="M162.594 543L163.781 543.615L164.375 549.769L166.75 553.462L172.094 555.923L178.031 557.154H184.562L191.688 555.308L195.25 552.846L197.625 549.769V544.846L197.031 543H198.812L200 546.077V549.769L197.625 553.462L194.656 555.923L189.312 558.385L186.938 559H175.062L169.125 557.154L164.375 553.462L162.594 551L162 546.077L162.594 543Z"
        fill="#2C2D2D" />
    <path
        d="M495 339L496.211 341.444L504.079 343.889L514.368 348.778L524.053 354.889L532.526 361.611L539.184 368.333L541 372H539.789V370.778H538.579L534.342 365.889L528.289 360.389L518.605 353.667L504.684 346.333L496.211 343.278L495 342.667V339Z"
        fill="#2C2D2D" />
    <path
        d="M266.64 589L269.84 592L275.6 604.6L279.44 615.4L282 625L281.36 628L280.08 627.4L274.96 610L268.56 595L266 589.6L266.64 589Z"
        fill="#2C2D2D" />
    <path
        d="M500.594 374L501.781 375.778L507.719 390L511.875 400.074L519 420.222L518.406 422L517.219 420.815L511.875 406L502.969 383.481L500 376.37L500.594 374Z"
        fill="#2C2D2D" />
    <path d="M256 685L285.4 685.5L286 687H244V686.5L250 686V685.5L256 685Z" fill="black" />
    <path
        d="M129.739 629H130.957L129.739 634.51L123.652 652.265L134 650.429V652.265L117.565 655.327L106 659V657.163L115.13 654.102L121.217 652.265L124.261 644.918L129.739 629Z"
        fill="#2B2C2C" />
    <path
        d="M472.735 348L475.206 348.588L476.441 350.353V353.294L475.824 355.059L477.676 358.588L478.912 359.176L479.529 362.118L482 366.235V368H480.765L477.676 362.706V361.529L471.5 362.706H461V362.118L471.5 360.941L475.824 359.765L474.588 356.824L473.971 354.471L470.882 353.294L470.265 350.941L472.735 348Z"
        fill="#171818" />
    <path
        d="M193.766 526H194.383L195 542.39L192.532 547.073L188.83 549.415L186.979 550H175.255L170.319 547.659L167.851 545.317L166 541.22H167.851L170.319 544.732V545.902L172.787 547.073L177.723 548.244L187.596 547.659L191.298 545.317L193.149 541.805L193.766 526Z"
        fill="#1B1B1B" />
    <path
        d="M475.55 304H479.95L484.35 305.385L486 306.077L484.9 310.231L482.15 313H479.4L476.1 308.154L475 304.692L475.55 304Z"
        fill="#242525" />
    <path
        d="M223.4 480H224V506.648L222.8 513.31L219.2 519.366L215 523V521.183L219.2 516.338L221 512.704L221.6 509.676L222.2 492.113L223.4 480Z"
        fill="#2D2E2E" />
    <path
        d="M154.39 715L155 716.091L153.169 717.727L147.068 720.455L134.864 724.273L120.831 727H119L119.61 725.364L135.475 722.091L147.068 718.273L154.39 715Z"
        fill="black" />
    <path
        d="M421.211 345L424.105 348.056L427 352.333V353.556L418.316 356L416 355.389L420.632 345.611L421.211 345Z"
        fill="#EAF3EE" />
    <path d="M517.6 264L557.2 264.5L559 265.5L557.8 266L517 265.5L517.6 264Z" fill="#2C2D2D" />
    <path
        d="M481.246 564L487.918 564.667L514 569.333V570H506.115L477 566.667V566H483.066V564.667L481.246 564Z"
        fill="#A1D9AD" />
    <path
        d="M146 419V420.75L145.387 426H144.774V421.333H108V420.167L126.387 419.583H144.774L146 419Z"
        fill="#2D2E2E" />
    <path
        d="M499 369L500.189 369.75H539.432V371.25H541.811L543 375L540.622 373.5L540.027 372.75L499.595 372L499 369Z"
        fill="#2A2B2B" />
    <path
        d="M117.214 563H119L117.81 565.326L113.048 569.395L97.5714 584.512L96.9762 585.674L98.7619 586.256H96.381L95.7857 588L94 587.419L94.5952 585.674H95.7857L96.9762 583.349L102.333 577.535L106.5 572.884L113.643 565.907L117.214 563Z"
        fill="#171717" />
    <path
        d="M494.706 285H495.353L496 297.6V309L495.353 314.4L491.471 320.4L486.941 324L485 322.8L488.235 321L492.118 316.2L493.412 313.2L494.059 290.4V285.6L494.706 285Z"
        fill="#2C2D2D" />
    <path
        d="M191.5 649L194 649.596L193 650.788V662.115L194.5 671.654L197 677.615L196.5 680L194.5 677.019L192.5 671.058L191 659.731V651.981L191.5 649Z"
        fill="#2D2E2E" />
    <path
        d="M442.977 316L446 316.59L444.186 317.769L435.116 320.718L429.674 323.667L426.651 326.026L423.628 330.744L421.814 336.051V339H420L420.605 333.103L424.233 326.026L429.674 321.308L436.93 317.769L442.977 316Z"
        fill="#1A1B1B" />
    <path
        d="M443 326L447.065 328.421L451.71 332.053L458.097 337.5L461 339.921L456.355 342.947L452.871 344.763L451.71 349H450.548V344.763L454.613 341.737L458.097 339.921L455.194 336.895L447.065 330.842L443 327.211V326Z"
        fill="#181919" />
    <path
        d="M390.667 354H391.933L392.567 362.077L395.1 366.115L397 367.846V369L394.467 367.846L391.3 364.962L389.4 356.885L379.267 363.808H378L379.267 361.5L390.667 354Z"
        fill="#1C1D1D" />
    <path
        d="M73 574H74.2432L77.3514 579.25L82.3243 583.333L88.5405 585.083L96 585.667L94.7568 586.25L94.1351 588L86.0541 586.833L78.5946 583.333L74.2432 578.667L73 576.333V574Z"
        fill="#242525" />
    <path
        d="M249.6 568L252 569.235L256.8 573.559L261 578.5L265.2 584.676L267 589L264.6 587.765L261.6 582.824L254.4 574.794L249 569.235L249.6 568Z"
        fill="#262727" />
    <path
        d="M418.617 340L421 341.217L407.894 346.696L394.191 354H393V352.783L402.532 347.304L415.043 341.217L418.617 340Z"
        fill="#1C1D1D" />
    <path d="M458.2 259L460 259.6L453.4 266.8L446.2 274L443.2 275.8L439 280V278.2L458.2 259Z"
        fill="#161717" />
    <path
        d="M194.077 483L197.154 484.077L199 486.769L197.154 489.462L194.077 490L191 487.846L191.615 485.154L194.077 483Z"
        fill="#090909" />
    <path
        d="M441.429 343H444.286L446 345.077V347.846L443.143 349.923L439.143 350.615L436.286 352L434 351.308L439.143 347.846L440.286 344.385L441.429 343Z"
        fill="#434845" />
    <path
        d="M170.625 703L173 704.238L165.281 709.81L155.188 716L154 715.381L156.969 712.286L168.25 704.857L170.625 703Z"
        fill="black" />
    <path d="M399.596 265H426.404L427 265.667L399 266L399.596 265Z" fill="#2A2B2B" />
    <path
        d="M241.449 665L243.816 666.143L245 668.429L244.408 669H217.776L216 667.857L221.918 667.286H228.429L242.633 667.857L241.449 665Z"
        fill="#2C2D2D" />
    <path
        d="M70.7778 622L72 623.846L64.6667 639.231L62.2222 645.385L61 646L61.6111 641.692L66.5 630.615L70.7778 622Z"
        fill="#252626" />
    <path
        d="M440.609 359L450.348 361.5L468 363.375V364H452.783L443.043 361.5L440 360.25L440.609 359Z"
        fill="#1F2020" />
    <path
        d="M480.857 325H484.857L486 326.4L482 327.8L475.714 332L474 331.3V327.8L475.143 326.4L480.857 325Z"
        fill="#DCECE3" />
    <path
        d="M484.632 324H486.526L488.421 326.424V327.636H489.684L493.474 333.091L495.368 336.727L496 343.394L494.737 344L492.842 336.121L488.421 329.455L485.895 326.424L484 324.606L484.632 324Z"
        fill="#131313" />
    <path
        d="M216.8 484H219.8L221 485.636L220.4 488.909L217.4 490L215 487.818L215.6 484.545L216.8 484Z"
        fill="#0D0E0E" />
    <path
        d="M417.923 349H419.154L417.923 352.75L416.692 355.25H420.385L421 356.5L414.846 357.75L413 359V357.125L406.846 356.5L405 354.625L414.231 355.25L417.923 349Z"
        fill="#1C1D1D" />
    <path
        d="M195.091 2L196.182 4.42424L199.455 18.3636L200 22L198.364 20.1818L195.091 9.27273L194 5.0303V2.60606L195.091 2Z"
        fill="#2F3130" />
    <path
        d="M490 354L492.588 356.4L497.765 367.2L499.706 371.4V372.6H501L500.353 375L498.412 373.2L497.118 369.6L490 355.8V354Z"
        fill="#1D1E1E" />
    <path
        d="M446.643 297L451.143 297.571L454.357 300.429L455 301.571V305L452.429 303.857L450.5 300.429L446 299.286L446.643 297Z"
        fill="#222323" />
    <path d="M234 594L235.75 594.618L241 611.912V615L239.833 614.382L234 595.235V594Z"
        fill="#212222" />
    <path
        d="M79.875 607H81L80.4375 610.036L75.375 619.143L72.5625 624L72 621.571L78.75 608.821L79.875 607Z"
        fill="#1F1F1F" />
    <path
        d="M526 357L529 358.25L536.2 365.125L540.4 370.125L541 372H539.8V370.75H538.6L534.4 365.75L528.4 360.125L526 358.25V357Z"
        fill="#292A2A" />
    <path
        d="M193.769 526H194.385L195 542.8L192.538 547.6L188.846 550L187 549.4L191.923 544.6L193.154 542.2L193.769 526Z"
        fill="#2A2B2B" />
    <path
        d="M194.125 685L196 685.619L195.375 687.476L190.375 691.19L182.25 698L181 697.381L185.375 693.667L189.75 688.714L194.125 685Z"
        fill="black" />
    <path
        d="M224 661L230.207 661.571L239.517 662.714L242 665L237.034 664.429L224.621 662.143L224 661Z"
        fill="#1A1A1A" />
    <path
        d="M132.08 554L134 554.529L132.08 556.118L123.12 560.882L119.92 563L118 562.471L121.2 559.824L130.16 555.059L132.08 554Z"
        fill="#1C1D1D" />
    <path
        d="M222.4 504H223V510.387L220.6 516.194L215.2 522L214 520.839L218.8 515.613L220.6 512.129L221.8 508.645L222.4 504Z"
        fill="#1C1C1C" />
    <path d="M147.125 648H154L152.75 649.6L138.375 652H134V650.4L147.125 648Z" fill="#212222" />
    <path
        d="M206.667 485L209.333 487.5L212 491.25L211.333 493.125L208 495H206L206.667 490L207.333 488.125L206.667 485Z"
        fill="#659270" />
    <path d="M427.8 257H428.4V264.704L429 272.407L427.2 273L426 265.296L427.2 257.593L427.8 257Z"
        fill="#212222" />
    <path d="M240.625 614L241.875 615.655L245 626.69V630L243.75 629.448L240 616.759L240.625 614Z"
        fill="#212222" />
    <path d="M149.6 581L152.6 582.143L155 583.857L154.4 585H146L146.6 582.143L149.6 581Z"
        fill="#FFAA48" />
    <path
        d="M347.412 573L348 575.2L345.059 579.6L342.706 582.35L340.353 584L338 583.45L340.941 581.25L344.471 577.4L347.412 573Z"
        fill="#1E1E1E" />
    <path
        d="M438.143 298L439.286 299.821L438.714 304.071L441 308.929L443.857 311.357L449 313.179L447.286 313.786L446.714 315V313.786L443.286 313.179L439.286 309.536L437 302.857L438.143 298Z"
        fill="#262727" />
    <path
        d="M472 294L475.333 294.556L476 295.111V297.889L474.667 299L470.667 298.444L470 295.667L472 294Z"
        fill="#0E0F0F" />
    <path
        d="M231.129 655H236.032V656.167L243.387 659.667L244 662L237.871 658.5L231.742 656.75L225 656.167V655.583L231.129 655Z"
        fill="#2B2C2C" />
    <path
        d="M198 500L200.545 502.462L203.727 506.154L206.909 506.769L212 501.846L211.364 504.923L208.182 508H203.091L198.636 503.077L198 500Z"
        fill="#272828" />
    <path d="M163.2 582H167.4L168 584.5L167.4 585H162V583L163.2 582Z" fill="#FFAA48" />
    <path
        d="M493.342 300H494L493.333 313.878L493.342 314L492.684 304.87L493.211 307.548L493.333 313.878L492.684 314L490.579 311.93L489.395 309.739L489 307.061L489.395 304.87L491.105 302.191L492.158 301.217L493.342 300Z"
        fill="#D4CDFD" />
    <path d="M249.938 686H255.875L263 686.667V687H244V686.667L249.938 686.333V686Z" fill="black" />
    <path
        d="M473.25 348L475.75 348.636L477 350.545V353.727L475.125 355L473.875 352.455H472.625L472 349.273L473.25 348Z"
        fill="#6C7770" />
    <path
        d="M483.857 324L485 324.643L481 325.929L475.286 327.214L474.714 327.857V331.071L475.286 332.357L473.571 333L473 329.143L473.571 325.286L483.857 324Z"
        fill="#232424" />
    <path
        d="M168.364 439H171.273L172 440.875L169.818 442.75L167.636 444L164.727 443.375L164 441.5H166.182V440.25L168.364 439Z"
        fill="#E6F4E9" />
    <path
        d="M167.25 585H169L167.833 588.333L163.75 595L162 594.333L163.75 591L166.083 588.333L167.25 585Z"
        fill="#212222" />
    <path d="M85.2632 585L96 585.6L94.7368 586.2L94.1053 588L85.8947 586.8L84 585.6L85.2632 585Z"
        fill="#2B2C2C" />
    <path
        d="M101.312 579L103 579.529L97.375 584.824L96.8125 585.882L98.5 586.412H96.25L95.6875 588L94 587.471L94.5625 585.882H95.6875L96.8125 583.765L101.312 579Z"
        fill="#161616" />
    <path
        d="M159 489L163.8 489.643L167.4 494.143L168 498H166.2L165 493.5L161.4 490.929L159 490.286V489Z"
        fill="#191A1A" />
    <path
        d="M494.333 313H495L494.333 317.053L490.333 321.684L486.333 324L485 322.842L488.333 321.105L492.333 316.474L494.333 313Z"
        fill="#222323" />
    <path d="M115.474 654H118V655.25L106 659V657.125L115.474 654Z" fill="#2D2E2E" />
    <path d="M64 635H65L64.5 638.474L62 645.421L61 646L61.5 641.947L64 635Z" fill="#1E1F1F" />
    <path d="M478.6 306H483.4L484 309.333L482.8 311L479.2 310.167L478 306.833L478.6 306Z"
        fill="#CFE9D6" />
    <path
        d="M161.923 594L163 595.231L157.615 602L156 601.385L156.538 599.538L160.846 595.231L161.923 594Z"
        fill="#FFAA48" />
    <path d="M386.235 357L388 357.538L385.647 359.692L379.176 364H378L379.176 361.846L386.235 357Z"
        fill="#202121" />
    <path
        d="M494.091 341L496 343.476L494.727 347.19L490.909 353.381L489 354L490.273 350.905L493.455 345.333L494.091 341Z"
        fill="#1C1D1D" />
    <path d="M391.5 402L393 402.636L390.75 409.636L387.75 416H387L387.75 410.909L391.5 402Z"
        fill="#292A2A" />
    <path d="M543 375L544.667 375.588L548 382.647V385H546.889L543 376.765V375Z" fill="#292A2A" />
    <path
        d="M495 339L496.176 341.182L503.824 343.364L505 343.909V345L501.471 344.455L495.588 342.818L495 342.273V339Z"
        fill="#212222" />
    <path
        d="M199 679L200 679.583V681.333L198.5 683.083V684.833H196V686H195L196 683.667L197 680.75L199 679Z"
        fill="#161616" />
    <path
        d="M484.667 324H486.667L488.667 326.462V327.692H490L492 330.154V332L490 331.385L486 326.462L484 324.615L484.667 324Z"
        fill="#111212" />
    <path d="M488.714 294H493V296.857L491.571 298L488.714 297.429L488 294.571L488.714 294Z"
        fill="#0E0F0F" />
    <path d="M154.308 715L155 716.111L152.923 717.778L147.385 720L146 719.444V718.333L154.308 715Z"
        fill="black" />
    <path d="M286.667 679L288 680.6V687L284 686.467L284.667 685.4H286L286.667 679Z" fill="#1D1D1D" />
    <path d="M396.588 369L406 371.143L404.824 374V372.571H400.706L396 370.429L396.588 369Z"
        fill="#2A2B2B" />
    <path d="M427.647 353H430V354.5L423.529 356H420L420.588 355L424.706 354H427.647V353Z"
        fill="#141414" />
    <path d="M443 326L447.2 328.667L452 332.667L450.2 334L443.6 328L443 326Z" fill="#1D1D1D" />
    <path d="M139.75 548L142 548.75L134.688 554H133V552.5L139.75 548Z" fill="#131313" />
    <path
        d="M444.824 275L446 275.571L439.529 281.857L437.176 283L436 281.857L437.765 280.143L440.118 279.571L444.824 275Z"
        fill="#292A2A" />
    <path d="M92.9 588L95 588.692L88.7 597L88 594.231L92.2 588.692L92.9 588Z" fill="#212121" />
    <path d="M396.375 392L397 393.833L393.25 402.389L392 403L392.625 399.333L396.375 392Z"
        fill="#1E1F1F" />
    <path d="M433.5 286L434.5 288.353L436 293.059L437 294.235H436L435.5 296L433 288.941L433.5 286Z"
        fill="#2A2B2B" />
    <path
        d="M496 364L497.25 364.647L499.75 371.118V372.412H501L500.375 375L498.5 373.059L497.25 369.176L496 366.588V364Z"
        fill="#141414" />
    <path d="M125.667 639L127 639.6L125.667 645L124.333 648H123L124.333 642.6L125.667 639Z"
        fill="#2D2E2E" />
    <path d="M563 364H564L563.5 367L560.5 370H559V368.8L562.5 365.2L563 364Z" fill="#212222" />
    <path d="M432 355L434.4 355.625L441 358.75V360L437.4 359.375L432 356.25V355Z" fill="#171818" />
    <path d="M238 605L239.2 605.625L241 611.875V615L239.8 614.375L238 608.125V605Z" fill="#1C1C1C" />
    <path d="M156.6 585H160.8L162 586.2H160.8V587.4L158.4 588L156.6 587.4L156 585.6L156.6 585Z"
        fill="#0D0E0E" />
    <path d="M504.261 568L514 569.333V570H506.087L500 569.333V568.667L504.261 568Z" fill="#85C996" />
    <path d="M482 326V328.1L477 333H476V330.9L482 326Z" fill="#1E1F1F" />
    <path d="M483 306L486 306.714L485 311H483V306Z" fill="#1F2020" />
    <path d="M193.9 685L196 685.625L195.3 687.5L191.1 690H189L190.4 687.5L193.9 685Z" fill="black" />
    <path
        d="M426.643 349L427.929 350.5H431.786L433.714 349.75L435 351.25L431.786 352.75L431.143 354.25L432.429 355H430.5V352H427.929L427.286 353.5L426 349.75L426.643 349Z"
        fill="#272828" />
    <path d="M519.583 353L523.667 355L526 357H523.667L519 354L519.583 353Z" fill="#2B2C2C" />
    <path
        d="M435.125 282H437L436.375 284.222L433.25 285.333L432.625 287L432 286.444V283.667L435.125 282Z"
        fill="#1A1A1A" />
    <path d="M73 574H74.1429L77 579.25V581L74.1429 578.667L73 576.333V574Z" fill="#202121" />
    <path d="M347.375 573L348 575.333L344.875 580H343L347.375 573Z" fill="#202121" />
    <path d="M500.667 374L502 375.714L504 379.714V382H502.667L500 376.286L500.667 374Z"
        fill="#262626" />
    <path d="M123.091 559H125V560L119.909 563L118 562.5L121.182 560L123.091 559Z" fill="#1B1C1C" />
    <path
        d="M166.667 541L169.333 542.636L170.667 545.909L172 546.455L170 547L168 545.364L166 541.545L166.667 541Z"
        fill="#2B2C2C" />
    <path d="M535 364L537.182 365.333L540.455 370L541 372H539.909V370.667H538.818L535 365.333V364Z"
        fill="#1B1C1C" />
    <path d="M405 355L410.333 355.6L415 356.2L413.667 358L405.667 356.2L405 355Z" fill="#252626" />
    <path d="M202.857 675H204L202.857 678L200.571 680L200 678L202.286 675.5L202.857 675Z"
        fill="#2D2E2E" />
    <path d="M421 332L422 334.154L421.5 339H420L420.5 333.615L421 332Z" fill="#282929" />
    <path d="M87.8571 595L89 595.6L87.8571 598.6L86.1429 601H85L85.5714 598L87.8571 595Z"
        fill="#191919" />
    <path d="M405.857 370L407 370.692L403.571 379L403 376.231L405.857 370Z" fill="#1A1B1B" />
    <path d="M478 362L479.714 362.545L482 366.364V368H480.857L478 363.091V362Z" fill="#222323" />
    <path d="M191 648L195 648.667L199 650.667L197.286 652L193.857 650.667V649.333L191 648.667V648Z"
        fill="#1B1C1C" />
    <path d="M418.667 340L421 341.2L416.917 343L414 342.4L415.167 341.2L418.667 340Z" fill="#292A2A" />
    <path d="M482 296L484.25 296.6L485 297.8V301.4L482.75 302L482 296Z" fill="#2D2E2E" />
    <path d="M240.5 614L241.5 615.615L242 619.923L241 621L240 615.077L240.5 614Z" fill="#2D2E2E" />
    <path d="M412.571 358L414 359.615L410.429 365L409 364.462L410.429 361.231L412.571 358Z"
        fill="#282828" />
    <path d="M173 101L177.909 102.2L179 103.4L175.727 104L173.545 102.8L173 101Z" fill="#303331" />
</svg>
    