<svg xmlns="http://www.w3.org/2000/svg" xmlns:xlink="http://www.w3.org/1999/xlink" width="1000" zoomAndPan="magnify" viewBox="0 0 750 374.999991" height="500" preserveAspectRatio="xMidYMid meet" version="1.0"><defs><g/></defs><g fill="#122c59" fill-opacity="1"><g transform="translate(86.064663, 244.116404)"><g><path d="M 41.5625 1.875 C 61.453125 1.875 75.984375 -9.640625 79.109375 -27.78125 L 56.328125 -27.78125 C 53.953125 -21.78125 48.5625 -18.03125 41.8125 -18.03125 C 33.296875 -18.03125 27.40625 -24.15625 27.40625 -33.171875 C 27.40625 -42.0625 33.296875 -48.1875 41.8125 -48.1875 C 48.0625 -48.1875 53.203125 -45.0625 55.953125 -39.671875 L 78.484375 -39.671875 C 75.609375 -56.953125 61.078125 -68.09375 41.5625 -68.09375 C 19.40625 -68.09375 3.875 -53.578125 3.875 -33.171875 C 3.875 -12.515625 19.28125 1.875 41.5625 1.875 Z M 41.5625 1.875 "/></g></g></g><g fill="#122c59" fill-opacity="1"><g transform="translate(161.410034, 244.116404)"><g><path d="M 42.4375 1.875 C 65.34375 1.875 80.859375 -12.265625 80.859375 -33.171875 C 80.859375 -53.953125 65.34375 -68.09375 42.4375 -68.09375 C 19.40625 -68.09375 3.875 -53.953125 3.875 -33.171875 C 3.875 -12.265625 19.40625 1.875 42.4375 1.875 Z M 27.40625 -33.171875 C 27.40625 -41.9375 33.671875 -48.1875 42.4375 -48.1875 C 51.1875 -48.1875 57.328125 -41.9375 57.328125 -33.171875 C 57.328125 -24.28125 51.1875 -18.03125 42.4375 -18.03125 C 33.671875 -18.03125 27.40625 -24.28125 27.40625 -33.171875 Z M 27.40625 -33.171875 "/></g></g></g><g fill="#122c59" fill-opacity="1"><g transform="translate(238.757964, 244.116404)"><g><path d="M 8.390625 0 L 32.421875 0 L 32.421875 -28.28125 C 32.421875 -39.546875 37.296875 -44.6875 48.0625 -44.6875 L 55.703125 -44.6875 L 55.703125 -66.21875 L 47.9375 -66.21875 C 38.671875 -66.21875 32.796875 -63.71875 28.671875 -57.953125 L 25.65625 -66.21875 L 8.390625 -66.21875 Z M 8.390625 0 "/></g></g></g><g fill="#122c59" fill-opacity="1"><g transform="translate(290.948485, 244.116404)"><g><path d="M 41.3125 1.875 C 58.453125 1.875 71.59375 -6.640625 77.484375 -21.40625 L 54.203125 -21.40625 C 51.578125 -18.28125 46.9375 -16.265625 41.8125 -16.265625 C 35.046875 -16.265625 29.421875 -19.90625 27.65625 -27.15625 L 78.734375 -27.15625 C 79.984375 -51.828125 65.09375 -68.09375 41.4375 -68.09375 C 19.28125 -68.09375 3.875 -53.828125 3.875 -33.171875 C 3.875 -12.390625 19.15625 1.875 41.3125 1.875 Z M 27.78125 -40.1875 C 29.796875 -46.5625 35.046875 -50.0625 41.6875 -50.0625 C 48.9375 -50.0625 53.828125 -46.3125 55.828125 -40.1875 Z M 27.78125 -40.1875 "/></g></g></g><g fill="#e85556" fill-opacity="1"><g transform="translate(146.041185, 169.379667)"><g><path d="M 26.671875 0 L 47.28125 0 L 47.28125 -25.03125 L 73.4375 -71.796875 L 49.953125 -71.796875 L 36.921875 -46.046875 L 31.390625 -56.921875 L 23.796875 -71.796875 L 0.515625 -71.796875 L 26.671875 -24.921875 Z M 26.671875 0 "/></g></g></g><g fill="#e85556" fill-opacity="1"><g transform="translate(213.932061, 169.379667)"><g><path d="M 34.765625 1.53125 C 53.53125 1.53125 66.25 -10.046875 66.25 -27.171875 C 66.25 -44.203125 53.53125 -55.796875 34.765625 -55.796875 C 15.890625 -55.796875 3.171875 -44.203125 3.171875 -27.171875 C 3.171875 -10.046875 15.890625 1.53125 34.765625 1.53125 Z M 22.46875 -27.171875 C 22.46875 -34.359375 27.59375 -39.484375 34.765625 -39.484375 C 41.953125 -39.484375 46.96875 -34.359375 46.96875 -27.171875 C 46.96875 -19.890625 41.953125 -14.765625 34.765625 -14.765625 C 27.59375 -14.765625 22.46875 -19.890625 22.46875 -27.171875 Z M 22.46875 -27.171875 "/></g></g></g><g fill="#e85556" fill-opacity="1"><g transform="translate(277.310457, 169.379667)"><g><path d="M 28.40625 1.53125 C 35.6875 1.53125 41.953125 -1.03125 45.953125 -5.53125 L 48 0 L 62.046875 0 L 62.046875 -54.25 L 42.359375 -54.25 L 42.359375 -25.125 C 42.359375 -18.46875 39.078125 -14.765625 33.75 -14.765625 C 28.609375 -14.765625 25.53125 -18.15625 25.53125 -24.515625 L 25.53125 -54.25 L 5.84375 -54.25 L 5.84375 -22.46875 C 5.84375 -7.796875 14.5625 1.53125 28.40625 1.53125 Z M 28.40625 1.53125 "/></g></g></g><g fill="#e85556" fill-opacity="1"><g transform="translate(340.278644, 169.379667)"><g><path d="M 6.875 0 L 26.5625 0 L 26.5625 -23.171875 C 26.5625 -32.40625 30.5625 -36.609375 39.390625 -36.609375 L 45.640625 -36.609375 L 45.640625 -54.25 L 39.28125 -54.25 C 31.6875 -54.25 26.875 -52.203125 23.484375 -47.484375 L 21.03125 -54.25 L 6.875 -54.25 Z M 6.875 0 "/></g></g></g><g fill="#f59d2c" fill-opacity="1"><g transform="translate(21.069359, 151.005615)"><g><path d="M 0.359375 0.03125 L 15.859375 1.28125 L 19.1875 -5.640625 L 36.484375 -4.25 L 38.671875 3.140625 L 54.234375 4.390625 L 38.65625 -47.875 L 24.171875 -49.046875 Z M 23.09375 -16.125 L 30.015625 -31.375 L 34.390625 -15.203125 Z M 23.09375 -16.125 "/></g></g></g><g fill="#f59d2c" fill-opacity="1"><g transform="translate(71.385748, 155.085937)"><g><path d="M 23.9375 3.046875 C 35.46875 3.984375 44.40625 -2.015625 47.046875 -12.375 L 33.875 -13.4375 C 32.21875 -10.0625 28.9375 -8.140625 25.03125 -8.453125 C 20.109375 -8.859375 17 -12.6875 17.421875 -17.90625 C 17.828125 -23.046875 21.53125 -26.3125 26.453125 -25.90625 C 30.0625 -25.625 32.890625 -23.578125 34.21875 -20.328125 L 47.25 -19.265625 C 46.40625 -29.390625 38.53125 -36.53125 27.21875 -37.4375 C 14.421875 -38.484375 4.765625 -30.796875 3.8125 -19 C 2.84375 -7.046875 11.0625 2 23.9375 3.046875 Z M 23.9375 3.046875 "/></g></g></g><g fill="#f59d2c" fill-opacity="1"><g transform="translate(114.969025, 158.620249)"><g><path d="M 23.796875 3.03125 C 33.71875 3.828125 41.71875 -0.46875 45.828125 -8.734375 L 32.34375 -9.828125 C 30.6875 -8.15625 27.90625 -7.203125 24.953125 -7.4375 C 21.046875 -7.765625 17.953125 -10.140625 17.28125 -14.421875 L 46.8125 -12.03125 C 48.703125 -26.234375 40.828125 -36.34375 27.15625 -37.453125 C 14.34375 -38.484375 4.78125 -30.9375 3.8125 -19 C 2.828125 -6.96875 10.984375 1.984375 23.796875 3.03125 Z M 17.96875 -21.9375 C 19.40625 -25.53125 22.625 -27.328125 26.453125 -27.015625 C 30.65625 -26.671875 33.296875 -24.25 34.171875 -20.609375 Z M 17.96875 -21.9375 "/></g></g></g><g fill="#122c59" fill-opacity="1"><g transform="translate(9.935689, 250.991381)"><g><path d="M 42.609375 0.484375 C 65.40625 -0.3125 78.515625 -11.53125 77.890625 -29.59375 C 77.359375 -44.78125 67.21875 -53.34375 44.796875 -57.546875 C 32.921875 -59.765625 28.5 -62.484375 28.34375 -67.1875 C 28.1875 -71.640625 32.015625 -74.53125 38.15625 -74.75 C 45.5 -75 49.828125 -71.359375 50.0625 -64.4375 L 74.9375 -65.296875 C 74.28125 -84.140625 59.46875 -95.8125 36.9375 -95.03125 C 15.328125 -94.265625 2.34375 -83.078125 2.953125 -65.78125 C 3.484375 -50.34375 13.890625 -41.125 34.734375 -37.921875 C 45.9375 -36.09375 51.4375 -32.859375 51.609375 -27.625 C 51.78125 -23.046875 47.9375 -20.28125 41.515625 -20.0625 C 33.9375 -19.796875 29.328125 -23.703125 29.09375 -30.78125 L 3.5625 -29.890625 C 4.25 -10.109375 18.78125 1.3125 42.609375 0.484375 Z M 42.609375 0.484375 "/></g></g></g><g fill="#122c59" fill-opacity="1"><g transform="translate(478.747645, 222.235446)"><g><path d="M 54.8125 -48.125 L 54.953125 -48.125 C 63.671875 -51.40625 70.90625 -58.625 73.078125 -68.4375 C 76.359375 -84.125 67.21875 -92.84375 47.171875 -92.84375 L 6.40625 -92.84375 L -13.359375 0.140625 L 30.125 0.140625 C 50.171875 0.140625 64.21875 -9.8125 67.625 -26.046875 C 70.21875 -38.3125 63.53125 -45.125 54.8125 -48.125 Z M 37.90625 -57.53125 L 23.046875 -57.53125 L 26.3125 -73.078125 L 41.171875 -73.078125 C 47.453125 -73.078125 50.453125 -70.90625 49.21875 -65.3125 C 48 -59.453125 44.171875 -57.53125 37.90625 -57.53125 Z M 18.671875 -37.625 L 34.625 -37.625 C 41.453125 -37.625 45.671875 -35.453125 44.171875 -28.625 C 42.671875 -21.8125 37.765625 -19.765625 31.5 -19.765625 L 15 -19.765625 Z M 18.671875 -37.625 "/></g></g></g><g fill="#122c59" fill-opacity="1"><g transform="translate(564.914457, 222.235446)"><g><path d="M 8.046875 0 L 27.8125 -92.84375 L 5.859375 -92.84375 L -13.90625 0 Z M 8.046875 0 "/></g></g></g><g fill="#122c59" fill-opacity="1"><g transform="translate(599.272107, 222.235446)"><g><path d="M 17.046875 1.234375 C 40.765625 1.234375 53.859375 -14.859375 57.953125 -34.21875 C 62.171875 -53.71875 55.765625 -69.8125 32.171875 -69.8125 C 8.3125 -69.8125 -4.640625 -53.71875 -8.859375 -34.21875 C -12.953125 -14.859375 -6.6875 1.234375 17.046875 1.234375 Z M 28.765625 -54.265625 C 37.359375 -54.265625 39.8125 -45.953125 37.21875 -34.21875 C 34.765625 -22.640625 28.90625 -14.1875 20.3125 -14.1875 C 11.859375 -14.1875 9 -22.640625 11.453125 -34.21875 C 13.90625 -45.953125 20.3125 -54.265625 28.765625 -54.265625 Z M 28.765625 -54.265625 "/></g></g></g><g fill="#122c59" fill-opacity="1"><g transform="translate(674.25902, 222.235446)"><g><path d="M -14.71875 22.765625 C 10.765625 35.046875 43.078125 26.71875 48.953125 -0.6875 L 63.671875 -70.359375 L 41.859375 -70.359375 L 40.359375 -63.53125 L 40.078125 -63.53125 C 37.359375 -68.3125 31.21875 -71.71875 24.953125 -71.71875 C 6.8125 -71.71875 -4.359375 -55.625 -8.453125 -36.125 C -12.546875 -16.640625 -6.953125 -0.546875 11.1875 -0.546875 C 16.90625 -0.546875 23.59375 -3.265625 28.359375 -8.1875 L 28.625 -8.1875 L 27.125 -1.234375 C 24.265625 12.265625 7.21875 14.453125 -8.046875 7.21875 Z M 22.09375 -18.265625 C 14.859375 -18.265625 12.140625 -24.546875 14.59375 -36.125 C 16.640625 -45.265625 22.09375 -51.671875 29.171875 -51.671875 C 33.125 -51.671875 36 -49.765625 37.078125 -48.53125 L 31.359375 -21.265625 C 29.59375 -20.046875 25.90625 -18.265625 22.09375 -18.265625 Z M 22.09375 -18.265625 "/></g></g></g><g fill="#122c59" fill-opacity="1"><g transform="translate(407.304911, 237.156208)"><g><path d="M 5.90625 22.21875 L 53.125 -140.609375 L 26.46875 -136.28125 L -20.734375 26.546875 Z M 5.90625 22.21875 "/></g></g></g></svg>